<svg width="276" height="207" viewBox="0 0 276 207" fill="none" xmlns="http://www.w3.org/2000/svg">
<path d="M226.267 179.754L240.891 127.391C241.512 125.166 241.189 122.715 240.029 120.836L205.529 45.7988C204.414 43.9961 202.663 42.9353 200.804 42.9353L88.9186 26.7375C87.1936 26.7375 85.5617 27.6466 84.4336 29.2267L36.9616 104.609C35.4867 106.69 35.1262 109.612 36.0335 112.118L60.4906 179.738L226.267 179.754Z" fill="#F4F4F4"/>
<path d="M242.737 180.414H43.2768C43.1508 180.414 43.0491 180.276 43.0491 180.106C43.0491 179.935 43.1508 179.797 43.2768 179.797H242.737C242.863 179.797 242.964 179.935 242.964 180.106C242.964 180.276 242.863 180.414 242.737 180.414Z" fill="#B2B6BB"/>
<path d="M93.169 134.459H62.9832C62.6022 134.459 62.2932 134.768 62.2932 135.149V178.957C62.2932 179.338 62.6022 179.647 62.9832 179.647H93.169C93.55 179.647 93.859 179.338 93.859 178.957V135.149C93.859 134.768 93.55 134.459 93.169 134.459Z" fill="#61656D"/>
<path d="M93.1707 134.459H70.8751C70.494 134.459 70.1851 134.768 70.1851 135.149V178.957C70.1851 179.338 70.494 179.647 70.8751 179.647H93.1707C93.5517 179.647 93.8607 179.338 93.8607 178.957V135.149C93.8607 134.768 93.5517 134.459 93.1707 134.459Z" fill="#B2B6BB"/>
<path opacity="0.08" d="M93.1707 134.459H70.8751C70.494 134.459 70.1851 134.768 70.1851 135.149V178.957C70.1851 179.338 70.494 179.647 70.8751 179.647H93.1707C93.5517 179.647 93.8607 179.338 93.8607 178.957V135.149C93.8607 134.768 93.5517 134.459 93.1707 134.459Z" fill="black"/>
<path d="M88.4513 145.083C89.0255 141.545 86.6231 138.212 83.0855 137.637C79.5477 137.063 76.2143 139.466 75.6401 143.003C75.0658 146.541 77.4682 149.874 81.006 150.449C84.5436 151.023 87.877 148.621 88.4513 145.083Z" fill="#616161"/>
<path opacity="0.2" d="M82.0427 137.546C81.7686 137.548 81.4948 137.568 81.2233 137.605C84.4198 138.007 87.7076 140.011 87.718 144.036C87.7283 148.06 84.4198 150.073 81.2233 150.468C81.495 150.504 81.7686 150.523 82.0427 150.525C82.8949 150.525 83.7387 150.357 84.5262 150.031C85.3135 149.705 86.0288 149.227 86.6314 148.624C87.2341 148.022 87.7121 147.306 88.0381 146.519C88.3643 145.732 88.5322 144.888 88.5322 144.036C88.5322 143.183 88.3643 142.34 88.0381 141.552C87.7121 140.765 87.2341 140.049 86.6314 139.447C86.0288 138.844 85.3135 138.366 84.5262 138.04C83.7387 137.714 82.8949 137.546 82.0427 137.546Z" fill="black"/>
<path d="M82.0427 171.724C87.2988 171.724 91.5595 167.463 91.5595 162.207C91.5595 156.951 87.2988 152.69 82.0427 152.69C76.7866 152.69 72.5259 156.951 72.5259 162.207C72.5259 167.463 76.7866 171.724 82.0427 171.724Z" fill="#616161"/>
<path opacity="0.2" d="M82.0427 152.688C81.7219 152.688 81.4062 152.706 81.094 152.737C83.4419 152.972 85.6187 154.071 87.2019 155.821C88.7851 157.571 89.6617 159.846 89.6617 162.206C89.6617 164.566 88.7851 166.841 87.2019 168.591C85.6187 170.341 83.4419 171.44 81.094 171.675C81.4062 171.707 81.7219 171.724 82.0427 171.724C84.5449 171.69 86.9329 170.673 88.6904 168.891C90.4478 167.11 91.4331 164.708 91.4331 162.206C91.4331 159.704 90.4478 157.302 88.6904 155.521C86.9329 153.74 84.5449 152.722 82.0427 152.688Z" fill="black"/>
<path opacity="0.2" d="M82.0427 167.189C84.7941 167.189 87.0245 164.958 87.0245 162.207C87.0245 159.455 84.7941 157.225 82.0427 157.225C79.2913 157.225 77.0609 159.455 77.0609 162.207C77.0609 164.958 79.2913 167.189 82.0427 167.189Z" fill="black"/>
<path opacity="0.2" d="M82.0427 157.225C81.8702 157.225 81.7098 157.225 81.5459 157.249C82.7734 157.375 83.9107 157.951 84.7375 158.867C85.5645 159.783 86.0223 160.973 86.0223 162.207C86.0223 163.441 85.5645 164.631 84.7375 165.547C83.9107 166.462 82.7734 167.039 81.5459 167.164C81.7098 167.18 81.8754 167.189 82.0427 167.189C83.3639 167.189 84.6311 166.664 85.5653 165.729C86.4996 164.795 87.0245 163.528 87.0245 162.207C87.0245 160.886 86.4996 159.618 85.5653 158.684C84.6311 157.75 83.3639 157.225 82.0427 157.225Z" fill="black"/>
<path opacity="0.2" d="M82.0427 147.713C84.0739 147.713 85.7204 146.067 85.7204 144.036C85.7204 142.005 84.0739 140.358 82.0427 140.358C80.0115 140.358 78.365 142.005 78.365 144.036C78.365 146.067 80.0115 147.713 82.0427 147.713Z" fill="black"/>
<path opacity="0.2" d="M82.0427 140.358C81.9185 140.358 81.796 140.358 81.6753 140.377C82.5832 140.467 83.4248 140.892 84.0372 141.568C84.6494 142.245 84.9885 143.124 84.9885 144.037C84.9885 144.949 84.6494 145.829 84.0372 146.505C83.4248 147.181 82.5832 147.606 81.6753 147.696C81.796 147.707 81.9185 147.713 82.0427 147.713C83.018 147.713 83.9535 147.326 84.6433 146.636C85.333 145.947 85.7204 145.011 85.7204 144.036C85.7204 143.06 85.333 142.125 84.6433 141.435C83.9535 140.746 83.018 140.358 82.0427 140.358Z" fill="black"/>
<path d="M190.428 179.647H220.614C220.995 179.647 221.304 179.338 221.304 178.957V135.149C221.304 134.767 220.995 134.459 220.614 134.459H190.428C190.047 134.459 189.738 134.767 189.738 135.149V178.957C189.738 179.338 190.047 179.647 190.428 179.647Z" fill="#61656D"/>
<path d="M190.426 179.647H212.722C213.103 179.647 213.412 179.338 213.412 178.957V135.149C213.412 134.767 213.103 134.459 212.722 134.459H190.426C190.045 134.459 189.736 134.767 189.736 135.149V178.957C189.736 179.338 190.045 179.647 190.426 179.647Z" fill="#B2B6BB"/>
<path opacity="0.08" d="M190.426 179.647H212.722C213.103 179.647 213.412 179.338 213.412 178.957V135.149C213.412 134.767 213.103 134.459 212.722 134.459H190.426C190.045 134.459 189.736 134.767 189.736 135.149V178.957C189.736 179.338 190.045 179.647 190.426 179.647Z" fill="black"/>
<path d="M202.6 150.431C206.138 149.857 208.539 146.523 207.966 142.986C207.392 139.448 204.057 137.046 200.519 137.62C196.983 138.194 194.58 141.528 195.154 145.065C195.729 148.603 199.062 151.005 202.6 150.431Z" fill="#616161"/>
<path opacity="0.2" d="M201.554 137.546C201.828 137.548 202.101 137.568 202.372 137.605C199.177 138.007 195.888 140.011 195.879 144.036C195.87 148.06 199.177 150.073 202.372 150.468C202.101 150.504 201.828 150.523 201.554 150.525C199.833 150.525 198.182 149.841 196.966 148.624C195.748 147.407 195.065 145.757 195.065 144.036C195.065 142.315 195.748 140.664 196.966 139.447C198.182 138.23 199.833 137.546 201.554 137.546Z" fill="black"/>
<path d="M201.554 171.724C206.81 171.724 211.071 167.463 211.071 162.207C211.071 156.951 206.81 152.69 201.554 152.69C196.298 152.69 192.037 156.951 192.037 162.207C192.037 167.463 196.298 171.724 201.554 171.724Z" fill="#616161"/>
<path opacity="0.2" d="M201.554 152.688C201.873 152.688 202.191 152.706 202.503 152.737C200.155 152.972 197.978 154.071 196.395 155.821C194.811 157.571 193.935 159.846 193.935 162.206C193.935 164.566 194.811 166.841 196.395 168.591C197.978 170.341 200.155 171.44 202.503 171.675C202.191 171.706 201.873 171.724 201.554 171.724C200.293 171.741 199.043 171.507 197.873 171.036C196.703 170.566 195.639 169.867 194.74 168.982C193.843 168.096 193.131 167.041 192.645 165.878C192.158 164.715 191.908 163.467 191.908 162.206C191.908 160.945 192.158 159.697 192.645 158.534C193.131 157.371 193.843 156.316 194.74 155.43C195.639 154.545 196.703 153.846 197.873 153.376C199.043 152.905 200.293 152.671 201.554 152.688Z" fill="black"/>
<path opacity="0.2" d="M201.554 167.189C204.306 167.189 206.536 164.958 206.536 162.207C206.536 159.455 204.306 157.225 201.554 157.225C198.803 157.225 196.572 159.455 196.572 162.207C196.572 164.958 198.803 167.189 201.554 167.189Z" fill="black"/>
<path opacity="0.2" d="M201.554 157.225C201.727 157.225 201.887 157.225 202.051 157.249C200.821 157.371 199.679 157.945 198.849 158.862C198.02 159.778 197.559 160.97 197.559 162.207C197.559 163.443 198.02 164.636 198.849 165.552C199.679 166.468 200.821 167.043 202.051 167.164C201.878 167.18 201.722 167.189 201.554 167.189C200.233 167.189 198.965 166.664 198.032 165.729C197.097 164.795 196.572 163.528 196.572 162.207C196.572 160.886 197.097 159.618 198.032 158.684C198.965 157.75 200.233 157.225 201.554 157.225Z" fill="black"/>
<path opacity="0.2" d="M201.554 147.713C203.585 147.713 205.232 146.067 205.232 144.036C205.232 142.005 203.585 140.358 201.554 140.358C199.524 140.358 197.876 142.005 197.876 144.036C197.876 146.067 199.524 147.713 201.554 147.713Z" fill="black"/>
<path opacity="0.2" d="M201.554 140.358C201.678 140.358 201.801 140.358 201.922 140.377C201.014 140.467 200.172 140.892 199.56 141.568C198.948 142.245 198.608 143.124 198.608 144.037C198.608 144.949 198.948 145.829 199.56 146.505C200.172 147.181 201.014 147.606 201.922 147.696C201.801 147.707 201.678 147.713 201.554 147.713C200.58 147.713 199.643 147.326 198.953 146.636C198.265 145.947 197.876 145.011 197.876 144.036C197.876 143.06 198.265 142.125 198.953 141.435C199.643 140.746 200.58 140.358 201.554 140.358Z" fill="black"/>
<path d="M180.247 137.327V135.194L177.587 135.83V137.483C177.587 137.638 177.587 137.793 177.587 137.948C177.594 138.06 177.589 138.171 177.575 138.281C177.556 138.4 177.504 138.511 177.427 138.602C177.347 138.693 177.245 138.762 177.132 138.799C177.028 138.844 176.918 138.869 176.806 138.871C176.692 138.872 176.581 138.851 176.476 138.809C176.386 138.771 176.307 138.709 176.248 138.63C176.188 138.552 176.15 138.459 176.138 138.362C176.126 138.264 176.14 138.165 176.178 138.074C176.216 137.984 176.278 137.905 176.355 137.845C176.493 137.729 176.661 137.653 176.838 137.624C176.926 137.608 177.016 137.612 177.102 137.634C177.187 137.656 177.268 137.696 177.337 137.752L177.378 137.783H177.39V134.352L180.445 133.724V137.597C180.456 137.726 180.432 137.856 180.375 137.972C180.316 138.088 180.228 138.186 180.118 138.255C179.997 138.339 179.855 138.389 179.709 138.4C179.562 138.411 179.414 138.382 179.283 138.316C179.2 138.275 179.129 138.215 179.076 138.139C179.022 138.064 178.989 137.977 178.979 137.885C178.967 137.794 178.981 137.701 179.015 137.616C179.05 137.53 179.105 137.455 179.176 137.396C179.269 137.304 179.383 137.234 179.507 137.191C179.631 137.148 179.762 137.134 179.893 137.15C180.004 137.166 180.107 137.212 180.192 137.283L180.247 137.327ZM180.247 134.536L177.594 135.18V135.54L180.247 134.902V134.536Z" fill="#21252B"/>
<path d="M83.1122 117.602V115.466L80.4523 116.104V116.179C80.4523 116.706 80.4523 117.234 80.4523 117.76C80.4523 117.917 80.4523 118.073 80.4523 118.228C80.4573 118.339 80.4526 118.451 80.4385 118.561C80.4198 118.68 80.3686 118.791 80.2903 118.883C80.212 118.974 80.1097 119.042 79.9951 119.078C79.8923 119.124 79.7811 119.149 79.6684 119.151C79.5558 119.153 79.4438 119.131 79.3396 119.089C79.2496 119.05 79.1714 118.988 79.1126 118.91C79.0538 118.831 79.0165 118.739 79.0046 118.642C78.9926 118.544 79.0062 118.446 79.0441 118.355C79.0819 118.265 79.1428 118.186 79.2206 118.126C79.3588 118.01 79.5256 117.934 79.7036 117.905C79.7911 117.889 79.8808 117.892 79.9668 117.914C80.0531 117.936 80.1333 117.977 80.2021 118.033L80.2435 118.062H80.2556V114.626L83.3089 113.998V117.871C83.3216 118 83.2977 118.13 83.2397 118.247C83.1817 118.363 83.092 118.461 82.9811 118.528C82.8605 118.612 82.7194 118.662 82.5728 118.673C82.4262 118.683 82.2794 118.654 82.1479 118.588C82.0655 118.548 81.9944 118.487 81.9413 118.412C81.8883 118.337 81.8549 118.25 81.844 118.158C81.8333 118.067 81.8454 117.974 81.8795 117.889C81.9137 117.803 81.9685 117.728 82.0393 117.669C82.1329 117.577 82.2463 117.506 82.3708 117.464C82.4954 117.421 82.6278 117.407 82.7586 117.422C82.868 117.439 82.9708 117.485 83.0553 117.557L83.1122 117.602ZM83.1122 114.811L80.4574 115.452V115.815L83.1122 115.176V114.811Z" fill="#21252B"/>
<path d="M180.92 62.5742V60.4386L178.26 61.0769V61.1511C178.26 61.6789 178.26 62.2068 178.26 62.7329C178.26 62.8899 178.26 63.0451 178.26 63.2004C178.265 63.3116 178.26 63.4231 178.246 63.5333C178.227 63.6523 178.175 63.7636 178.098 63.855C178.02 63.9464 177.916 64.0142 177.803 64.0508C177.699 64.0969 177.589 64.1215 177.477 64.1234C177.363 64.1251 177.251 64.1039 177.147 64.0611C177.057 64.0223 176.978 63.9606 176.919 63.8821C176.861 63.8038 176.825 63.7113 176.812 63.614C176.8 63.5167 176.814 63.4181 176.852 63.3277C176.89 63.2373 176.95 63.1583 177.028 63.0986C177.166 62.9829 177.333 62.9066 177.511 62.8778C177.599 62.8618 177.689 62.8647 177.775 62.8868C177.861 62.9089 177.941 62.9494 178.01 63.0054L178.051 63.0348C178.051 63.0348 178.051 63.0348 178.063 63.0348V59.5986L181.116 58.9707V62.8433C181.128 62.9727 181.106 63.1029 181.047 63.2192C180.989 63.3354 180.899 63.4331 180.789 63.5005C180.668 63.5847 180.526 63.6346 180.38 63.6453C180.233 63.6558 180.087 63.6268 179.955 63.5609C179.873 63.5202 179.802 63.4596 179.748 63.3844C179.695 63.3094 179.662 63.2221 179.652 63.1307C179.641 63.0394 179.654 62.9468 179.686 62.8614C179.721 62.7759 179.776 62.7003 179.847 62.6415C179.94 62.5492 180.054 62.479 180.178 62.4364C180.302 62.3936 180.435 62.3794 180.566 62.3948C180.675 62.4114 180.778 62.4579 180.863 62.5294L180.92 62.5742ZM180.92 59.7831L178.265 60.4248V60.7871L180.92 60.1488V59.7831Z" fill="#21252B"/>
<path d="M198.03 114.712V109.663C198.028 109.635 198.028 109.607 198.03 109.579C198.03 109.537 198.047 109.496 198.077 109.467C198.106 109.437 198.147 109.42 198.189 109.42C198.23 109.42 198.271 109.437 198.301 109.467C198.33 109.496 198.347 109.537 198.347 109.579C198.353 109.616 198.353 109.654 198.347 109.691C198.335 109.788 198.346 109.887 198.375 109.98C198.404 110.074 198.454 110.16 198.52 110.233C198.68 110.451 198.853 110.659 199.037 110.857C199.327 111.157 199.508 111.544 199.555 111.958C199.562 112.19 199.541 112.421 199.491 112.648C199.46 112.856 199.412 113.065 199.363 113.27C199.344 112.986 199.332 112.699 199.303 112.408C199.288 112.119 199.231 111.834 199.131 111.563C199.082 111.427 198.984 111.313 198.856 111.245C198.729 111.176 198.58 111.157 198.441 111.192C198.356 111.204 198.33 111.238 198.33 111.325C198.33 112.38 198.33 113.435 198.33 114.49C198.33 114.706 198.33 114.923 198.33 115.14C198.344 115.768 197.985 116.187 197.342 116.301C197.107 116.344 196.866 116.31 196.652 116.203C196.552 116.152 196.462 116.081 196.39 115.993C196.317 115.906 196.265 115.805 196.234 115.696C196.203 115.587 196.196 115.473 196.212 115.361C196.227 115.249 196.267 115.142 196.326 115.045C196.552 114.692 197.15 114.421 197.557 114.516C197.721 114.567 197.878 114.633 198.03 114.712Z" fill="#21252B"/>
<path d="M119.887 62.9625V57.9134C119.886 57.8853 119.886 57.857 119.887 57.8289C119.887 57.7868 119.904 57.7464 119.934 57.7168C119.964 57.6869 120.004 57.6702 120.046 57.6702C120.088 57.6702 120.129 57.6869 120.158 57.7168C120.188 57.7464 120.205 57.7868 120.205 57.8289C120.21 57.8662 120.21 57.9039 120.205 57.941C120.194 58.0385 120.203 58.1372 120.233 58.2305C120.263 58.324 120.312 58.4099 120.377 58.4827C120.538 58.7005 120.711 58.9089 120.895 59.1071C121.184 59.4068 121.366 59.7939 121.412 60.2077C121.419 60.4366 121.398 60.6655 121.349 60.8891C121.318 61.0978 121.269 61.3065 121.221 61.5118C121.202 61.2272 121.19 60.9408 121.161 60.6493C121.146 60.3605 121.088 60.0755 120.988 59.804C120.939 59.6679 120.842 59.5546 120.714 59.4861C120.587 59.4175 120.439 59.3987 120.298 59.4332C120.214 59.4452 120.188 59.4797 120.188 59.566C120.188 60.6217 120.188 61.6769 120.188 62.7314C120.188 62.947 120.188 63.1643 120.188 63.3817C120.201 64.0096 119.843 64.4288 119.199 64.5426C118.965 64.5856 118.722 64.5511 118.509 64.4443C118.408 64.3934 118.319 64.322 118.247 64.2347C118.175 64.1474 118.122 64.0461 118.092 63.9373C118.061 63.8285 118.053 63.7144 118.069 63.6025C118.085 63.4905 118.124 63.3831 118.183 63.2868C118.409 62.9332 119.008 62.6624 119.415 62.7572C119.578 62.811 119.737 62.8799 119.887 62.9625Z" fill="#21252B"/>
<path d="M106.087 147.814V142.772C106.086 142.743 106.086 142.715 106.087 142.687C106.092 142.648 106.11 142.612 106.139 142.585C106.167 142.557 106.204 142.541 106.243 142.537C106.283 142.539 106.322 142.555 106.351 142.583C106.381 142.611 106.4 142.648 106.405 142.689C106.41 142.727 106.41 142.765 106.405 142.803C106.394 142.9 106.403 142.999 106.433 143.092C106.463 143.185 106.512 143.271 106.577 143.344C106.738 143.562 106.911 143.77 107.095 143.969C107.384 144.268 107.566 144.655 107.612 145.069C107.619 145.297 107.598 145.526 107.549 145.749C107.518 145.959 107.469 146.166 107.421 146.372C107.402 146.087 107.39 145.802 107.361 145.518C107.346 145.229 107.287 144.944 107.188 144.672C107.139 144.536 107.041 144.423 106.914 144.355C106.787 144.286 106.638 144.267 106.498 144.302C106.414 144.314 106.388 144.348 106.388 144.434C106.388 145.49 106.388 146.545 106.388 147.6C106.388 147.817 106.388 148.033 106.388 148.25C106.401 148.88 106.043 149.299 105.399 149.411C105.165 149.455 104.922 149.421 104.709 149.314C104.608 149.263 104.519 149.192 104.447 149.105C104.375 149.017 104.322 148.916 104.292 148.807C104.261 148.698 104.253 148.584 104.269 148.472C104.285 148.361 104.324 148.253 104.383 148.157C104.609 147.812 105.208 147.533 105.615 147.626C105.778 147.675 105.936 147.738 106.087 147.814Z" fill="#21252B"/>
<path d="M152.818 126.222C152.818 126.242 152.818 126.261 152.804 126.282C152.695 126.79 152.787 127.321 153.062 127.763C153.336 128.204 153.771 128.522 154.275 128.649L157.539 129.46L158.674 125.975L155.466 124.781C155.198 124.682 154.912 124.641 154.627 124.661C154.342 124.682 154.065 124.763 153.814 124.899C153.563 125.036 153.344 125.224 153.173 125.453C153.001 125.681 152.88 125.943 152.818 126.222Z" fill="#424350"/>
<g opacity="0.4">
<path opacity="0.4" d="M152.818 126.222C152.818 126.242 152.818 126.261 152.804 126.282C152.695 126.79 152.787 127.321 153.062 127.763C153.336 128.204 153.771 128.522 154.275 128.649L157.539 129.46L158.674 125.975L155.466 124.781C155.198 124.682 154.912 124.641 154.627 124.661C154.342 124.682 154.065 124.763 153.814 124.899C153.563 125.036 153.344 125.224 153.173 125.453C153.001 125.681 152.88 125.943 152.818 126.222Z" fill="white"/>
</g>
<path d="M153.905 128.483C153.84 128.347 153.789 128.205 153.753 128.059C153.672 127.793 153.568 127.422 153.472 127.008C153.375 126.594 153.299 126.217 153.258 125.942C153.226 125.795 153.208 125.645 153.204 125.494C153.253 125.636 153.29 125.783 153.313 125.932C153.397 126.308 153.47 126.637 153.549 126.991C153.629 127.345 153.722 127.669 153.806 128.043C153.851 128.187 153.884 128.334 153.905 128.483Z" fill="#424350"/>
<path d="M154.826 128.806C154.803 128.806 154.624 127.934 154.424 126.851C154.224 125.768 154.079 124.885 154.101 124.881C154.124 124.878 154.301 125.744 154.501 126.836C154.701 127.928 154.846 128.802 154.826 128.806Z" fill="#424350"/>
<path d="M155.959 129.009C155.938 129.009 155.723 128.055 155.478 126.869C155.233 125.682 155.053 124.718 155.077 124.718C155.102 124.718 155.314 125.673 155.559 126.86C155.804 128.047 155.981 129.006 155.959 129.009Z" fill="#424350"/>
<path d="M156.802 128.168C156.76 128.02 156.73 127.87 156.713 127.717C156.644 127.333 156.583 126.993 156.52 126.629C156.456 126.265 156.38 125.928 156.304 125.546C156.265 125.397 156.238 125.246 156.223 125.094C156.282 125.236 156.327 125.383 156.357 125.533C156.43 125.808 156.518 126.189 156.597 126.615C156.677 127.041 156.735 127.427 156.77 127.709C156.795 127.86 156.806 128.014 156.802 128.168Z" fill="#424350"/>
<path d="M157.606 126.443C157.527 126.283 157.473 126.113 157.444 125.937C157.392 125.77 157.364 125.595 157.361 125.42C157.439 125.579 157.493 125.75 157.522 125.925C157.574 126.093 157.603 126.267 157.606 126.443Z" fill="#424350"/>
<path d="M156.639 128.449C156.305 128.539 155.966 128.603 155.623 128.642C155.284 128.708 154.941 128.746 154.596 128.758C154.929 128.668 155.268 128.603 155.61 128.564C155.95 128.499 156.293 128.46 156.639 128.449Z" fill="#424350"/>
<path d="M157.27 127.305C157.27 127.327 156.371 127.5 155.253 127.693C154.136 127.886 153.225 128.024 153.221 128.002C153.218 127.979 154.122 127.807 155.24 127.614C156.357 127.421 157.267 127.281 157.27 127.305Z" fill="#424350"/>
<path d="M157.76 126.236C157.76 126.258 156.637 126.437 155.245 126.636C153.853 126.834 152.721 126.981 152.718 126.958C152.714 126.936 153.841 126.758 155.233 126.558C156.625 126.358 157.756 126.215 157.76 126.236Z" fill="#424350"/>
<path d="M156.742 125.275C156.742 125.297 155.899 125.435 154.845 125.585C153.791 125.735 152.947 125.839 152.947 125.816C152.947 125.794 153.792 125.656 154.845 125.508C155.897 125.359 156.74 125.254 156.742 125.275Z" fill="#424350"/>
<path d="M157.803 125.499L156.458 129.447L162.84 131.457C163.131 131.526 163.438 131.484 163.7 131.337C163.961 131.191 164.158 130.952 164.251 130.667L164.655 129.43C164.746 129.149 164.73 128.844 164.61 128.573C164.489 128.303 164.273 128.087 164.003 127.967L157.803 125.499Z" fill="#3F4249"/>
<path d="M172.723 138.173H173.861C173.971 138.173 174.077 138.216 174.154 138.294C174.232 138.371 174.275 138.477 174.275 138.587V179.597H172.309V138.587C172.309 138.477 172.352 138.371 172.43 138.294C172.507 138.216 172.612 138.173 172.723 138.173Z" fill="#61656D"/>
<path d="M165.6 130.287C175.724 138.99 164.836 143.93 171.751 149.212C171.751 149.212 175.201 151.21 173.866 154.669C172.947 156.901 169.611 156.523 169.711 153.461C169.845 149.354 177.394 149.219 173.678 142.076" stroke="#3F4249" stroke-width="1.19" stroke-miterlimit="10"/>
<path opacity="0.2" d="M172.309 139.035L174.275 140.396V143.003C174.275 143.049 174.261 143.094 174.237 143.133C174.213 143.173 174.178 143.205 174.137 143.226C174.097 143.247 174.051 143.256 174.004 143.252C173.958 143.249 173.915 143.233 173.877 143.206L172.307 142.088L172.309 139.035Z" fill="black"/>
<path d="M159.09 130.746L158.367 131.797C158.259 131.954 158.299 132.169 158.456 132.277L173.849 142.857C174.006 142.965 174.222 142.925 174.328 142.768L175.053 141.716C175.16 141.559 175.12 141.344 174.963 141.236L159.57 130.657C159.413 130.549 159.198 130.588 159.09 130.746Z" fill="#61656D"/>
<path opacity="0.2" d="M159.602 133.073C159.68 133.107 159.766 133.117 159.849 133.102C159.932 133.087 160.009 133.048 160.07 132.989L161.006 131.654L160.447 131.273L159.338 132.863L159.602 133.073Z" fill="black"/>
<path d="M173.923 141.185C173.923 141.309 173.887 141.431 173.816 141.535C173.747 141.639 173.649 141.72 173.533 141.768C173.418 141.816 173.292 141.828 173.169 141.804C173.047 141.779 172.933 141.719 172.845 141.631C172.757 141.543 172.697 141.43 172.672 141.308C172.648 141.185 172.66 141.058 172.709 140.943C172.757 140.827 172.836 140.729 172.942 140.66C173.045 140.59 173.168 140.553 173.292 140.553C173.459 140.553 173.619 140.62 173.739 140.738C173.856 140.856 173.923 141.017 173.923 141.185Z" fill="#3F4249"/>
<path d="M163.773 130.107L165.61 130.65L165.747 130.107L163.773 129.527V130.107Z" fill="#3F4249"/>
<path d="M179.252 178.625H167.056C166.961 178.625 166.883 178.703 166.883 178.798V179.688C166.883 179.783 166.961 179.861 167.056 179.861H179.252C179.347 179.861 179.424 179.783 179.424 179.688V178.798C179.424 178.703 179.347 178.625 179.252 178.625Z" fill="#3F4249"/>
<path d="M158.276 130.02L158.362 129.868C158.81 129.075 159.111 128.206 159.25 127.305L162.952 128.669V128.702C162.95 129.616 162.647 130.505 162.09 131.229L158.276 130.02Z" fill="#61656D"/>
<path opacity="0.2" d="M159.25 127.305C159.25 127.305 158.95 128.909 158.276 130.024L158.488 130.091C159.017 129.276 159.353 128.351 159.469 127.386L159.25 127.305Z" fill="black"/>
<path d="M159.941 129.44L161.467 130.489L159.879 132.801C159.827 132.876 159.747 132.928 159.657 132.945C159.567 132.961 159.474 132.942 159.399 132.89L158.441 132.231C158.366 132.18 158.314 132.1 158.297 132.01C158.28 131.92 158.3 131.827 158.352 131.752L159.941 129.44Z" fill="#61656D"/>
<path d="M160.128 131.713C160.128 131.837 160.091 131.959 160.022 132.063C159.953 132.167 159.854 132.248 159.739 132.296C159.623 132.344 159.496 132.356 159.374 132.332C159.251 132.307 159.139 132.247 159.051 132.159C158.962 132.071 158.902 131.958 158.878 131.836C158.853 131.713 158.866 131.586 158.914 131.471C158.962 131.355 159.042 131.257 159.146 131.187C159.25 131.118 159.372 131.081 159.497 131.081C159.664 131.081 159.825 131.148 159.943 131.266C160.062 131.384 160.128 131.545 160.128 131.713Z" fill="#3F4249"/>
<path opacity="0.2" d="M159.224 130.479L161.034 131.117L161.162 130.931L159.314 130.348L159.224 130.479Z" fill="black"/>
<path d="M155.84 145.835C155.84 145.835 157.62 153.302 157.639 156.958C157.643 157.303 157.52 157.638 157.294 157.9C156.621 158.671 154.965 160.052 148.949 161.262L149.839 153.601L148.899 146.854L155.84 145.835Z" fill="#FC9D9D"/>
<path d="M125.235 140.011L114.367 136.142L116.279 128.552L125.39 129.441L130.738 129.247L142.611 129.337L149.642 131.122C150.207 131.266 150.742 131.507 151.224 131.835C153.061 133.084 153.679 134.25 153.679 134.25C155.059 136.741 156.354 145.661 156.354 145.661L148.905 146.848L148.241 155.021H126.308L125.328 146.73C124.974 144.507 124.943 142.244 125.235 140.011Z" fill="#424350"/>
<path d="M124.828 124.267C124.733 124.771 124.778 125.291 124.957 125.771C125.142 126.276 125.476 126.713 125.917 127.021C126.357 127.33 126.881 127.496 127.419 127.496C127.693 127.492 127.964 127.446 128.224 127.36C128.523 127.267 128.842 127.266 129.141 127.356C129.44 127.447 129.704 127.625 129.901 127.867C130.284 128.328 130.785 128.676 131.35 128.874C131.916 129.072 132.525 129.111 133.111 128.988C135.052 128.574 136.253 126.508 135.621 124.503C135.402 123.793 134.954 123.174 134.346 122.745C133.739 122.315 133.006 122.099 132.263 122.13C131.763 122.158 131.277 122.299 130.84 122.542C130.403 122.785 130.027 123.123 129.739 123.532C129.531 123.114 129.218 122.757 128.83 122.497C129.228 122.086 129.519 121.584 129.679 121.035C129.839 120.486 129.864 119.906 129.749 119.346C129.366 117.426 127.515 116.208 125.654 116.682C123.983 117.108 122.875 118.839 123.148 120.591C123.27 121.396 123.669 122.133 124.278 122.673C124.501 122.867 124.67 123.117 124.766 123.396C124.863 123.676 124.884 123.977 124.828 124.267Z" fill="black"/>
<path d="M132.825 127.678L133.18 119.37H139.39C139.858 120.893 140.315 126.097 140.472 127.762C140.449 129.246 143.944 129.449 144.857 129.894C143.284 135.059 137.439 136.246 133.284 134.712C131.288 133.976 129.815 132.097 129.51 129.297C130.643 129.175 132.847 129.375 132.825 127.678Z" fill="#FC9D9D"/>
<path opacity="0.15" d="M132.839 126.636C133.147 126.733 133.468 126.782 133.791 126.781C134.79 126.767 135.756 126.426 136.542 125.81C137.391 125.721 138.209 125.448 138.94 125.009C138.975 124.986 138.999 124.95 139.008 124.909C139.017 124.868 139.009 124.825 138.987 124.79C138.976 124.773 138.963 124.758 138.946 124.746C138.93 124.734 138.911 124.726 138.892 124.721C138.872 124.717 138.852 124.716 138.832 124.72C138.812 124.723 138.793 124.731 138.776 124.742C138.213 125.081 137.591 125.311 136.943 125.421C136.896 125.421 136.849 125.447 136.803 125.447C136.663 125.47 136.544 125.47 136.427 125.496H136.38C136.303 125.517 136.224 125.526 136.144 125.522H135.509C134.637 125.496 133.789 125.235 133.053 124.768L132.839 126.636Z" fill="black"/>
<path d="M129.375 124.464L134.01 122.071L133.391 110.816L129.409 111.333L127.529 112.917C127.529 112.917 127.634 113.55 127.662 113.924C127.766 115.349 126.587 116.093 125.247 116.839L129.375 124.464Z" fill="black"/>
<path d="M130.912 120.824L130.7 117.973C130.403 115.356 127.767 115.73 128.138 118.326C128.509 120.923 130.672 120.791 130.672 120.791L130.912 120.824Z" fill="#FC9D9D"/>
<path opacity="0.15" d="M128.757 117.202C128.766 117.219 128.779 117.234 128.794 117.247C128.809 117.259 128.826 117.268 128.845 117.273C128.863 117.278 128.883 117.279 128.902 117.276C128.921 117.273 128.94 117.266 128.956 117.255C129.014 117.201 129.084 117.161 129.16 117.138C129.237 117.114 129.317 117.109 129.396 117.121C129.551 117.195 129.671 117.328 129.729 117.49C129.839 117.758 129.895 118.045 129.893 118.335L129.905 118.635C129.905 118.884 130.193 118.825 130.191 118.627V118.356C130.204 118.004 130.133 117.655 129.984 117.336C129.848 117.045 129.681 116.873 129.482 116.819C129.368 116.793 129.249 116.795 129.136 116.825C129.023 116.855 128.919 116.912 128.833 116.991C128.802 117.015 128.778 117.048 128.764 117.085C128.751 117.123 128.748 117.163 128.757 117.202Z" fill="black"/>
<path d="M130.324 119.911L130.558 112.804C130.563 112.5 130.628 112.198 130.75 111.919C130.871 111.639 131.047 111.386 131.267 111.174C131.486 110.962 131.745 110.795 132.029 110.684C132.313 110.572 132.617 110.518 132.922 110.524L139.854 110.788C140.09 110.799 140.321 110.857 140.534 110.958C140.747 111.058 140.939 111.2 141.097 111.374C141.256 111.549 141.378 111.753 141.458 111.975C141.537 112.197 141.572 112.433 141.56 112.668L141.307 120.313C141.209 123.315 138.775 125.661 135.844 125.569L135.438 125.549C132.532 125.447 130.25 122.911 130.324 119.911Z" fill="#FC9D9D"/>
<path d="M138.214 118.547C138.21 118.435 138.174 118.326 138.109 118.234C138.044 118.142 137.954 118.071 137.849 118.031C137.744 117.99 137.629 117.981 137.519 118.005C137.409 118.029 137.309 118.085 137.23 118.165C137.152 118.246 137.099 118.348 137.079 118.459C137.058 118.569 137.07 118.684 137.114 118.787C137.158 118.891 137.231 118.979 137.325 119.042C137.419 119.104 137.529 119.137 137.641 119.137C137.795 119.134 137.942 119.071 138.049 118.96C138.157 118.85 138.216 118.701 138.214 118.547Z" fill="black"/>
<path d="M137.522 118.649C137.522 118.618 137.51 118.588 137.488 118.566C137.466 118.544 137.436 118.532 137.405 118.532C137.374 118.532 137.344 118.544 137.322 118.566C137.3 118.588 137.288 118.618 137.288 118.649C137.288 118.68 137.3 118.71 137.322 118.732C137.344 118.754 137.374 118.766 137.405 118.766C137.436 118.766 137.466 118.754 137.488 118.732C137.51 118.71 137.522 118.68 137.522 118.649Z" fill="white"/>
<path d="M133.76 118.585C133.756 118.473 133.72 118.364 133.655 118.272C133.59 118.18 133.5 118.109 133.395 118.068C133.29 118.028 133.175 118.019 133.065 118.043C132.955 118.067 132.855 118.123 132.777 118.204C132.698 118.284 132.645 118.386 132.625 118.497C132.604 118.608 132.616 118.722 132.66 118.825C132.704 118.929 132.777 119.018 132.871 119.08C132.965 119.142 133.075 119.175 133.187 119.175C133.341 119.172 133.488 119.109 133.595 118.998C133.703 118.888 133.762 118.739 133.76 118.585Z" fill="black"/>
<path d="M133.066 118.661C133.065 118.638 133.058 118.616 133.044 118.597C133.031 118.579 133.012 118.565 132.991 118.556C132.969 118.548 132.946 118.547 132.923 118.552C132.901 118.557 132.881 118.569 132.865 118.585C132.849 118.602 132.838 118.623 132.834 118.645C132.83 118.668 132.832 118.691 132.841 118.712C132.85 118.733 132.865 118.751 132.885 118.764C132.904 118.777 132.926 118.783 132.949 118.783C132.965 118.783 132.981 118.78 132.995 118.774C133.01 118.767 133.022 118.758 133.034 118.747C133.044 118.736 133.053 118.722 133.059 118.707C133.064 118.693 133.067 118.677 133.066 118.661Z" fill="white"/>
<path opacity="0.15" d="M153.27 152.787L151.2 153.194L151.165 152.071C151.165 152.071 152.226 152.197 153.22 152.388C153.264 152.396 153.304 152.418 153.335 152.451C153.366 152.483 153.385 152.525 153.391 152.569C153.397 152.614 153.388 152.659 153.366 152.698C153.344 152.737 153.31 152.768 153.27 152.787Z" fill="black"/>
<path opacity="0.2" d="M148.949 146.466C149.002 145.836 149.106 145.211 149.261 144.598C149.578 143.347 150.075 140.976 149.606 139.998C148.95 138.618 149.168 140.751 148.524 146.38C148.352 147.075 147.987 147.707 147.47 148.203C147.47 148.203 145.756 150.101 140.846 148.469C138.388 147.685 135.762 147.594 133.256 148.207C132.739 148.334 131.214 148.643 130.693 148.757C129.534 149.016 127.716 149.197 126.474 148.255C126.305 148.125 126.169 147.957 126.077 147.765C125.872 147.341 125.387 146.328 125.387 142.383C125.387 141.609 125.328 138.844 125.168 139.968C125.044 140.848 125.083 145.031 125.142 145.918L125.528 148.433L129.56 152.198L148.736 148.899L148.949 146.466Z" fill="black"/>
<path opacity="0.15" d="M134.709 119.863C134.714 119.773 134.738 119.684 134.778 119.603C134.818 119.521 134.873 119.449 134.942 119.389C135.01 119.329 135.089 119.283 135.175 119.254C135.261 119.224 135.351 119.212 135.442 119.218C135.483 119.232 135.519 119.258 135.545 119.293C135.571 119.328 135.586 119.37 135.587 119.413C135.575 119.455 135.55 119.492 135.516 119.519C135.482 119.546 135.44 119.561 135.397 119.563C135.303 119.565 135.213 119.601 135.143 119.665C135.074 119.728 135.03 119.815 135.019 119.908C135.013 119.954 135.016 120.002 135.029 120.047C135.041 120.092 135.063 120.133 135.092 120.17C135.121 120.206 135.157 120.236 135.198 120.259C135.24 120.281 135.285 120.294 135.331 120.298L136.092 120.367C136.134 120.381 136.17 120.407 136.196 120.441C136.222 120.476 136.236 120.519 136.237 120.562C136.225 120.603 136.201 120.64 136.167 120.667C136.133 120.694 136.092 120.71 136.049 120.712L135.287 120.643C135.194 120.639 135.103 120.614 135.021 120.57C134.939 120.526 134.868 120.465 134.813 120.39C134.757 120.316 134.719 120.23 134.701 120.138C134.683 120.047 134.686 119.953 134.709 119.863Z" fill="black"/>
<path d="M126.097 163.064C126.097 163.064 137.427 164.539 138.98 164.365L150.213 162.481L156.038 158.902C156.038 158.902 161.843 155.728 165.402 159.085C165.402 159.085 169.981 162.49 166.004 167.803C166.004 167.803 158.569 175.379 153.563 178.757L135.828 179.821C135.828 179.821 114.123 173.507 109.781 171.151C109.336 170.909 102.996 169.253 105.742 162.926C105.742 162.926 106.727 159.661 111.709 159.223C113.07 159.111 114.44 159.216 115.768 159.535C117.897 160.033 122.404 161.218 126.097 163.064Z" fill="#21252B"/>
<path opacity="0.41" d="M157.896 159.333C153.087 162.172 148.432 165.266 143.953 168.602C143.953 168.602 139.468 171.613 137.467 172.742" stroke="black" stroke-width="1.36" stroke-miterlimit="10"/>
<path opacity="0.3" d="M165.448 165.172C165.448 165.172 163.763 171.47 153.784 173.675C153.784 173.675 146.582 175.721 144.895 175.786L148.065 176.154C148.065 176.154 164.111 173.421 165.448 165.172Z" fill="black"/>
<path opacity="0.41" d="M138.964 165.083C138.964 165.083 138.586 170.157 138.721 171.731" stroke="black" stroke-width="1.36" stroke-miterlimit="10"/>
<path opacity="0.41" d="M122.428 163.449C122.428 163.449 132.225 167.825 138.807 167.527C138.807 167.527 143.668 167.368 150.373 163.894" stroke="black" stroke-width="1.36" stroke-miterlimit="10"/>
<path d="M116.745 162.481L138.964 173.597L135.606 179.754L124.561 176.409L116.745 162.481Z" fill="#21252B"/>
<path opacity="0.41" d="M112.618 161.703C112.618 161.703 114.488 161.339 116.232 162.007" stroke="black" stroke-width="1.36" stroke-miterlimit="10"/>
<path opacity="0.3" d="M116.745 162.481C116.745 162.481 115.501 160.886 119.341 163.232C120.194 163.753 121.072 164.234 121.975 164.677C125.044 166.171 131.966 169.455 136.058 170.715C136.058 170.715 138.457 171.456 140.408 170.116C140.55 170.018 140.703 169.935 140.843 169.835C142.071 168.948 148.683 164.82 153.584 161.657C154.08 161.338 154.567 161.008 155.045 160.667C156.007 159.977 157.85 158.728 157.196 159.74C157.196 159.74 146.183 166.942 141.231 170.396L137.467 172.743L116.745 162.481Z" fill="black"/>
<path d="M120.405 175.119C120.405 175.119 118.093 174.946 116.983 177.799C116.983 177.799 115.282 180.58 119.439 180.161C119.439 180.161 124.505 179.614 127.498 179.867C128.583 179.959 129.672 180.018 130.762 180.011C132.375 180.016 133.988 179.93 135.592 179.754L120.405 175.119Z" fill="#424350"/>
<path opacity="0.7" d="M120.405 175.119C120.405 175.119 118.093 174.946 116.983 177.799C116.983 177.799 115.282 180.58 119.439 180.161C119.439 180.161 124.505 179.614 127.498 179.867C128.583 179.959 129.672 180.018 130.762 180.011C132.375 180.016 133.988 179.93 135.592 179.754L120.405 175.119Z" fill="white"/>
<path d="M138.69 174.111L140.203 174.639C142.607 175.489 145.135 175.934 147.684 175.96C148.327 175.974 148.97 175.938 149.608 175.852C149.608 175.852 154.912 174.568 157.182 175.315C157.182 175.315 159.875 175.938 159.169 178.381C159.007 178.896 158.742 179.374 158.392 179.786C158.042 180.199 157.613 180.537 157.13 180.78C156.054 181.349 154.334 181.874 151.955 181.446C151.955 181.446 146.366 181.37 143.475 180.928C143.119 180.873 142.767 180.799 142.419 180.702L136.059 178.977L138.69 174.111Z" fill="#424350"/>
<path opacity="0.7" d="M138.69 174.111L140.203 174.639C142.607 175.489 145.135 175.934 147.684 175.96C148.327 175.974 148.97 175.938 149.608 175.852C149.608 175.852 154.912 174.568 157.182 175.315C157.182 175.315 159.875 175.938 159.169 178.381C159.007 178.896 158.742 179.374 158.392 179.786C158.042 180.199 157.613 180.537 157.13 180.78C156.054 181.349 154.334 181.874 151.955 181.446C151.955 181.446 146.366 181.37 143.475 180.928C143.119 180.873 142.767 180.799 142.419 180.702L136.059 178.977L138.69 174.111Z" fill="white"/>
<path opacity="0.41" d="M116.486 162.481C116.486 162.481 123.986 166.09 127.854 168.039L138.766 173.597L135.606 179.552" stroke="black" stroke-width="1.36" stroke-miterlimit="10"/>
<path opacity="0.15" d="M118.659 175.629C118.659 175.629 123.796 176.464 135.188 179.852L135.832 179.821L120.405 175.119C120.405 175.119 119.267 175.012 118.659 175.629Z" fill="black"/>
<path opacity="0.41" d="M166.345 165.495C166.345 165.495 166.033 166.514 164.601 167.543" stroke="black" stroke-width="1.36" stroke-miterlimit="10"/>
<path d="M136.965 122.016C137.06 122.016 137.082 122.089 137.06 122.163C136.935 122.449 136.73 122.693 136.469 122.866C136.208 123.038 135.903 123.131 135.591 123.134C135.278 123.137 134.972 123.049 134.708 122.881C134.444 122.713 134.235 122.473 134.105 122.189C134.099 122.173 134.096 122.155 134.098 122.138C134.1 122.121 134.105 122.105 134.114 122.09C134.124 122.076 134.136 122.064 134.151 122.055C134.166 122.046 134.183 122.041 134.2 122.04L136.965 122.016Z" fill="white"/>
<path d="M128.604 112.762C129.108 113.688 129.955 114.267 131.157 114.192C132.961 114.076 134.365 112.587 134.476 110.773L134.507 110.781C134.855 111.241 135.312 111.607 135.835 111.848C136.359 112.089 136.935 112.196 137.51 112.161C137.846 112.139 138.176 112.069 138.492 111.951C138.899 115.787 141.271 116.091 141.271 116.091C141.293 116.46 141.334 117.196 141.386 118.073C141.422 118.666 140.51 118.927 140.782 119.886C140.899 120.16 140.966 120.451 140.983 120.748C141 120.993 140.98 121.238 140.924 121.476C140.781 122.056 140.434 122.564 139.946 122.908C139.239 123.425 138.462 124.115 138.354 125.025C138.219 126.142 139.044 128.197 141.831 128.14C142.632 128.126 146.761 127.954 145.99 122.218C145.942 121.863 145.685 121.336 145.499 120.995C145.435 120.886 145.377 120.774 145.326 120.659C145.226 120.428 145.167 120.182 145.154 119.931C145.105 119.142 145.592 118.58 146.097 118.069C146.385 117.81 146.61 117.489 146.755 117.131C146.901 116.772 146.964 116.386 146.939 115.999C146.912 115.472 146.72 114.967 146.39 114.554C146.06 114.142 145.609 113.845 145.1 113.703C144.958 113.664 144.829 113.585 144.731 113.475C144.632 113.365 144.568 113.228 144.545 113.082C144.326 111.827 144.222 109.501 140.679 109.129C140.76 107.807 139.168 106.486 137.21 106.432C135.533 106.388 134.431 107.086 133.553 108.206C133.307 108.527 132.987 108.783 132.619 108.951C132.252 109.119 131.848 109.194 131.445 109.17C131.083 109.141 130.557 108.965 130.051 108.998C128.095 109.105 127.219 110.809 127.536 112.95L128.604 112.762Z" fill="black"/>
<path d="M130.553 117.707C130.504 118.326 130.701 118.94 131.101 119.415C131.501 119.89 132.072 120.189 132.69 120.246C133.309 120.28 133.916 120.066 134.377 119.652C134.838 119.239 135.116 118.659 135.15 118.04C135.18 117.609 135.094 117.177 134.904 116.789C135.277 116.677 135.676 116.683 136.046 116.805C135.948 117.049 135.886 117.306 135.861 117.567C135.812 118.187 136.009 118.801 136.41 119.276C136.81 119.751 137.381 120.049 138 120.107C138.618 120.139 139.225 119.925 139.686 119.512C140.147 119.098 140.425 118.519 140.46 117.9C140.509 117.281 140.312 116.667 139.911 116.192C139.511 115.717 138.94 115.418 138.321 115.361C137.893 115.331 137.465 115.422 137.086 115.626C136.708 115.829 136.396 116.136 136.185 116.51C135.725 116.336 135.218 116.332 134.755 116.498C134.486 116.091 134.095 115.78 133.637 115.611C133.179 115.442 132.68 115.423 132.211 115.558C131.742 115.693 131.328 115.974 131.03 116.36C130.732 116.746 130.565 117.218 130.553 117.705V117.707ZM136.121 117.593C136.208 116.462 137.156 115.594 138.25 115.684C138.786 115.731 139.281 115.989 139.628 116.4C139.974 116.812 140.144 117.343 140.101 117.88C140.015 119.011 139.066 119.877 137.972 119.789C136.879 119.701 136.058 118.725 136.121 117.593ZM130.857 117.735C130.943 116.603 131.892 115.737 132.985 115.825C133.521 115.873 134.016 116.131 134.362 116.542C134.709 116.954 134.879 117.485 134.836 118.021C134.75 119.153 133.801 120.02 132.708 119.931C132.173 119.881 131.679 119.623 131.332 119.212C130.986 118.801 130.815 118.27 130.857 117.735Z" fill="white"/>
<path d="M140.588 120.824L140.805 117.973C141.107 115.356 143.794 115.73 143.408 118.326C143.021 120.923 140.832 120.791 140.832 120.791L140.588 120.824Z" fill="#FC9D9D"/>
<path opacity="0.15" d="M142.782 117.202C142.773 117.219 142.76 117.234 142.745 117.247C142.729 117.259 142.712 117.268 142.693 117.273C142.674 117.278 142.654 117.279 142.634 117.276C142.615 117.273 142.596 117.266 142.58 117.255C142.52 117.203 142.45 117.165 142.374 117.143C142.298 117.121 142.218 117.116 142.14 117.128C142.061 117.163 141.99 117.214 141.931 117.278C141.872 117.341 141.825 117.415 141.795 117.497C141.681 117.761 141.622 118.047 141.623 118.335V118.628C141.623 118.877 141.329 118.818 141.331 118.62V118.349C141.318 117.997 141.39 117.647 141.541 117.329C141.679 117.038 141.849 116.865 142.05 116.812C142.166 116.786 142.287 116.788 142.402 116.818C142.517 116.848 142.623 116.905 142.711 116.984C142.742 117.01 142.766 117.044 142.778 117.082C142.791 117.121 142.792 117.163 142.782 117.202Z" fill="black"/>
<path d="M123.802 165.327H150.234C150.279 165.327 150.323 165.346 150.356 165.378C150.388 165.41 150.406 165.454 150.406 165.5V166.323C150.406 166.402 150.375 166.478 150.319 166.534C150.263 166.59 150.187 166.621 150.108 166.621H123.933C123.853 166.621 123.778 166.59 123.722 166.534C123.666 166.478 123.634 166.402 123.634 166.323V165.5C123.634 165.455 123.652 165.412 123.683 165.38C123.714 165.348 123.757 165.329 123.802 165.327Z" fill="#3F4249"/>
<path opacity="0.2" d="M123.802 165.327H150.234C150.279 165.327 150.323 165.346 150.356 165.378C150.388 165.41 150.406 165.454 150.406 165.5V166.323C150.406 166.402 150.375 166.478 150.319 166.534C150.263 166.59 150.187 166.621 150.108 166.621H123.933C123.853 166.621 123.778 166.59 123.722 166.534C123.666 166.478 123.634 166.402 123.634 166.323V165.5C123.634 165.455 123.652 165.412 123.683 165.38C123.714 165.348 123.757 165.329 123.802 165.327Z" fill="black"/>
<path d="M124.036 165.352C123.964 165.351 123.895 165.323 123.842 165.274C123.788 165.225 123.756 165.158 123.75 165.086L122.435 149.064C122.427 148.985 122.435 148.906 122.46 148.83C122.484 148.755 122.523 148.685 122.576 148.626C122.628 148.566 122.692 148.519 122.764 148.485C122.835 148.451 122.913 148.433 122.993 148.431H151.705C151.786 148.433 151.866 148.452 151.938 148.487C152.011 148.522 152.076 148.573 152.128 148.634C152.181 148.696 152.219 148.768 152.242 148.846C152.264 148.923 152.27 149.005 152.259 149.085L150.38 165.071C150.372 165.141 150.337 165.206 150.284 165.253C150.23 165.3 150.162 165.326 150.091 165.326L124.036 165.352Z" fill="#3F4249"/>
<g opacity="0.2">
<path opacity="0.2" d="M124.036 165.352C123.964 165.351 123.895 165.323 123.842 165.274C123.788 165.225 123.756 165.158 123.75 165.086L122.435 149.064C122.427 148.985 122.435 148.906 122.46 148.83C122.484 148.755 122.523 148.685 122.576 148.626C122.628 148.566 122.692 148.519 122.764 148.485C122.835 148.451 122.913 148.433 122.993 148.431H151.705C151.786 148.433 151.866 148.452 151.938 148.487C152.011 148.522 152.076 148.573 152.128 148.634C152.181 148.696 152.219 148.768 152.242 148.846C152.264 148.923 152.27 149.005 152.259 149.085L150.38 165.071C150.372 165.141 150.337 165.206 150.284 165.253C150.23 165.3 150.162 165.326 150.091 165.326L124.036 165.352Z" fill="black"/>
</g>
<path d="M124.036 165.357C123.964 165.357 123.895 165.329 123.842 165.281C123.789 165.232 123.756 165.165 123.75 165.093L122.435 149.513C122.428 149.435 122.437 149.357 122.462 149.283C122.487 149.208 122.526 149.14 122.579 149.082C122.631 149.024 122.695 148.978 122.766 148.946C122.837 148.914 122.915 148.898 122.992 148.897H151.705C151.785 148.898 151.863 148.915 151.936 148.949C152.008 148.982 152.073 149.031 152.125 149.091C152.177 149.151 152.216 149.221 152.239 149.298C152.262 149.374 152.269 149.454 152.259 149.533L150.38 165.07C150.372 165.141 150.338 165.206 150.284 165.253C150.231 165.301 150.162 165.326 150.091 165.326L124.036 165.357Z" fill="#3F4249"/>
<path opacity="0.3" d="M138.631 157.736C138.147 157.736 137.753 157.391 137.753 156.979C137.757 156.862 137.788 156.748 137.845 156.646C137.902 156.544 137.982 156.458 138.079 156.394C137.847 156.299 137.599 156.25 137.348 156.251C136.408 156.251 135.645 156.908 135.645 157.72C135.645 158.533 136.408 159.19 137.348 159.19C138.288 159.19 139.051 158.531 139.051 157.72C139.051 157.694 139.051 157.669 139.051 157.643C138.919 157.704 138.776 157.736 138.631 157.736Z" fill="white"/>
<g opacity="0.2">
<path opacity="0.2" d="M150.075 165.446H124.065C124.054 165.447 124.043 165.445 124.032 165.44C124.021 165.436 124.011 165.43 124.003 165.422C123.995 165.414 123.989 165.404 123.984 165.394C123.98 165.383 123.977 165.372 123.977 165.36C123.977 165.337 123.987 165.315 124.003 165.298C124.02 165.281 124.042 165.272 124.065 165.272H150.075C150.098 165.272 150.121 165.281 150.137 165.298C150.154 165.315 150.163 165.337 150.163 165.36C150.163 165.372 150.161 165.383 150.156 165.394C150.152 165.404 150.145 165.414 150.137 165.422C150.129 165.43 150.119 165.436 150.108 165.44C150.098 165.445 150.086 165.447 150.075 165.446Z" fill="black"/>
</g>
<path opacity="0.3" d="M150.912 133.039C150.912 133.039 149.04 135.149 149.04 138" stroke="black" stroke-width="1.03" stroke-miterlimit="10"/>
<path d="M129.178 113.16V113.131C129.183 112.357 129.351 111.592 129.671 110.887C129.991 110.181 130.455 109.551 131.034 109.037C132.264 107.93 133.865 107.325 135.519 107.342H136.078C137.733 107.325 139.334 107.93 140.563 109.037C141.143 109.551 141.607 110.181 141.927 110.887C142.247 111.592 142.414 112.357 142.419 113.131V113.16C142.427 114.161 142.311 115.159 142.074 116.132H142.689C142.844 115.133 142.949 114.125 143.003 113.115C142.995 112.271 142.811 111.438 142.461 110.67C142.112 109.901 141.605 109.215 140.974 108.654C139.631 107.446 137.885 106.785 136.078 106.802H135.516C133.71 106.785 131.963 107.446 130.62 108.654C129.989 109.215 129.483 109.901 129.133 110.67C128.784 111.438 128.599 112.271 128.592 113.115C128.627 114.125 128.73 115.132 128.901 116.129H129.515C129.365 115.677 129.178 113.16 129.178 113.16Z" fill="#DADDDF"/>
<path d="M143.348 116.003C143.693 116.067 144.16 116.381 144.136 116.738L143.889 120.232C143.865 120.591 143.358 120.867 143.008 120.885L143.348 116.032V116.003Z" fill="#424350"/>
<path opacity="0.3" d="M143.348 116.003C143.693 116.067 144.16 116.381 144.136 116.738L143.889 120.232C143.865 120.591 143.358 120.867 143.008 120.885L143.348 116.032V116.003Z" fill="black"/>
<path d="M141.043 120.803L141.378 115.899C141.391 115.639 141.508 115.395 141.701 115.221C141.895 115.047 142.15 114.957 142.41 114.97C142.67 114.984 142.914 115.1 143.088 115.294C143.262 115.488 143.353 115.742 143.339 116.003V116.032L143.003 120.891V120.938C142.979 121.193 142.856 121.43 142.661 121.596C142.465 121.762 142.212 121.846 141.956 121.828C141.7 121.811 141.461 121.693 141.29 121.502C141.119 121.31 141.03 121.06 141.041 120.803H141.043Z" fill="#424350"/>
<path d="M128.223 115.972C128.053 115.999 127.9 116.087 127.791 116.219C127.682 116.352 127.626 116.52 127.633 116.691L127.767 120.198C127.774 120.369 127.843 120.532 127.962 120.656C128.08 120.78 128.24 120.856 128.411 120.871L128.223 116.003V115.972Z" fill="#424350"/>
<path opacity="0.3" d="M128.223 115.972C128.053 115.999 127.9 116.087 127.791 116.219C127.682 116.352 127.626 116.52 127.633 116.691L127.767 120.198C127.774 120.369 127.843 120.532 127.962 120.656C128.08 120.78 128.24 120.856 128.411 120.871L128.223 116.003V115.972Z" fill="black"/>
<path d="M130.376 120.84L130.186 115.92C130.18 115.66 130.071 115.413 129.883 115.233C129.694 115.053 129.442 114.955 129.182 114.961C128.922 114.967 128.674 115.076 128.494 115.264C128.314 115.453 128.217 115.705 128.223 115.965V115.996L128.411 120.864V120.923C128.421 121.183 128.534 121.429 128.725 121.606C128.916 121.783 129.17 121.876 129.43 121.866C129.691 121.856 129.936 121.743 130.113 121.552C130.29 121.361 130.384 121.107 130.374 120.847L130.376 120.84Z" fill="#424350"/>
<path d="M143.159 113.127H142.25C142.25 110.022 139.48 107.485 136.075 107.485H135.516C132.111 107.485 129.34 110.017 129.34 113.127H128.431C128.436 112.262 128.622 111.407 128.979 110.618C129.335 109.829 129.854 109.124 130.501 108.549C131.873 107.314 133.658 106.638 135.504 106.652H136.063C137.909 106.638 139.693 107.314 141.065 108.549C141.717 109.122 142.24 109.826 142.601 110.615C142.962 111.404 143.152 112.26 143.159 113.127Z" fill="#424350"/>
<path d="M133.565 108.208C134.443 107.088 135.545 106.389 137.222 106.434C139.18 106.488 140.772 107.814 140.691 109.13L140.863 110.524L133.565 108.208Z" fill="black"/>
<path d="M129.375 143.09C129.365 143.143 129.35 143.195 129.332 143.246L129.197 143.687C129.017 144.217 128.951 144.778 129.004 145.335C129.063 145.723 129.225 146.089 129.475 146.392C129.625 146.569 129.806 146.718 130.01 146.83C130.239 146.953 130.487 147.035 130.745 147.07C131.319 147.133 131.9 147.114 132.47 147.015C133.058 146.93 133.677 146.78 134.165 146.44C134.653 146.1 134.916 145.578 134.812 145.084C134.753 144.835 134.601 144.619 134.386 144.479C134.159 144.334 133.915 144.218 133.66 144.134C133.408 144.047 133.162 143.946 132.922 143.832C132.702 143.724 132.507 143.572 132.349 143.385C132.221 143.216 132.081 143.055 131.931 142.904C131.78 142.769 131.605 142.665 131.414 142.597C131.064 142.471 130.685 142.453 130.325 142.545C130.064 142.614 129.823 142.745 129.623 142.926C129.467 143.072 129.343 143.248 129.259 143.444C129.269 143.391 129.286 143.339 129.309 143.29C129.378 143.143 129.473 143.01 129.591 142.897C129.792 142.705 130.037 142.565 130.305 142.49C130.68 142.389 131.077 142.404 131.443 142.531C131.649 142.6 131.838 142.708 132.002 142.849C132.157 143.001 132.301 143.164 132.433 143.335C132.585 143.513 132.772 143.657 132.982 143.758C133.219 143.868 133.462 143.966 133.71 144.051C133.976 144.139 134.229 144.261 134.464 144.413C134.697 144.565 134.863 144.8 134.928 145.071C135.038 145.588 134.755 146.159 134.238 146.514C133.72 146.87 133.087 147.022 132.489 147.106C131.907 147.206 131.315 147.223 130.729 147.156C130.459 147.117 130.198 147.03 129.958 146.899C129.747 146.781 129.559 146.625 129.404 146.439C129.148 146.125 128.984 145.746 128.93 145.345C128.893 145.025 128.906 144.701 128.97 144.386C129.017 144.147 129.081 143.911 129.159 143.68C129.221 143.489 129.277 143.335 129.315 143.242L129.359 143.13C129.362 143.116 129.368 143.103 129.375 143.09Z" fill="#FAFAFA"/>
<path d="M143.002 135.747C142.996 135.793 142.986 135.838 142.971 135.882L142.873 136.264C142.742 136.729 142.695 137.212 142.733 137.693C142.774 138.021 142.892 138.336 143.078 138.609C143.183 138.758 143.314 138.887 143.467 138.988C143.628 139.094 143.811 139.165 144.001 139.197C144.418 139.251 144.842 139.236 145.254 139.15C145.701 139.095 146.125 138.923 146.485 138.652C146.658 138.513 146.792 138.331 146.875 138.125C146.957 137.919 146.985 137.696 146.956 137.475C146.917 137.272 146.807 137.089 146.646 136.958C146.485 136.831 146.308 136.729 146.118 136.653C145.934 136.576 145.755 136.489 145.581 136.39C145.417 136.293 145.275 136.161 145.166 136.004C145.074 135.858 144.972 135.718 144.862 135.585C144.714 135.43 144.526 135.319 144.318 135.264C144.111 135.209 143.893 135.213 143.687 135.274C143.492 135.339 143.317 135.453 143.178 135.606C143.061 135.738 142.971 135.892 142.913 136.059C142.92 136.013 142.933 135.968 142.951 135.925C142.997 135.798 143.066 135.681 143.154 135.58C143.315 135.389 143.532 135.254 143.775 135.197C144.018 135.14 144.273 135.163 144.502 135.262C144.655 135.324 144.793 135.418 144.907 135.538C145.02 135.671 145.125 135.812 145.219 135.959C145.325 136.108 145.462 136.233 145.619 136.325C145.791 136.42 145.968 136.505 146.149 136.58C146.345 136.659 146.529 136.764 146.696 136.894C146.875 137.037 146.997 137.239 147.041 137.463C147.072 137.697 147.042 137.935 146.956 138.154C146.869 138.374 146.727 138.567 146.544 138.716C146.173 138.997 145.735 139.175 145.273 139.233C144.852 139.319 144.42 139.334 143.994 139.276C143.8 139.243 143.614 139.171 143.449 139.063C143.283 138.957 143.14 138.817 143.03 138.654C142.84 138.37 142.722 138.044 142.685 137.705C142.659 137.428 142.669 137.148 142.714 136.873C142.749 136.667 142.795 136.463 142.852 136.261C142.897 136.089 142.937 135.968 142.965 135.882L142.997 135.785C142.997 135.772 142.999 135.759 143.002 135.747Z" fill="#FAFAFA"/>
<path d="M156.03 143.639C155.87 143.687 155.708 143.725 155.543 143.753C155.131 143.838 154.708 143.854 154.291 143.799C154.101 143.767 153.919 143.697 153.756 143.592C153.605 143.49 153.473 143.361 153.368 143.211C153.181 142.938 153.063 142.624 153.023 142.295C152.983 141.815 153.031 141.331 153.163 140.867C153.196 140.736 153.224 140.627 153.246 140.541C153.299 140.415 153.373 140.298 153.465 140.196C153.605 140.042 153.784 139.928 153.982 139.865C154.242 139.786 154.522 139.802 154.772 139.91C154.916 139.971 155.047 140.062 155.155 140.175C155.266 140.308 155.367 140.448 155.459 140.594L155.485 140.627L155.454 140.468C155.378 140.35 155.293 140.238 155.2 140.134C155.086 140.014 154.948 139.92 154.795 139.858C154.566 139.758 154.311 139.735 154.068 139.792C153.825 139.85 153.608 139.984 153.447 140.175C153.379 140.254 153.321 140.341 153.275 140.434C153.286 140.405 153.292 140.375 153.294 140.344C153.289 140.355 153.285 140.366 153.282 140.377C153.271 140.403 153.261 140.436 153.249 140.474C153.221 140.56 153.182 140.688 153.135 140.853C153.079 141.055 153.034 141.259 152.999 141.466C152.952 141.74 152.942 142.02 152.97 142.297C153.007 142.636 153.125 142.962 153.315 143.246C153.424 143.402 153.561 143.538 153.718 143.646C153.888 143.756 154.079 143.832 154.279 143.868C154.705 143.926 155.138 143.912 155.559 143.825C155.722 143.798 155.884 143.761 156.043 143.713C156.038 143.693 156.033 143.667 156.03 143.639Z" fill="#FAFAFA"/>
<path d="M122.02 129.244C122.022 129.41 122.014 129.577 121.995 129.742C121.964 130.158 121.863 130.566 121.699 130.95C121.616 131.125 121.499 131.281 121.354 131.409C121.215 131.527 121.055 131.618 120.883 131.678C120.569 131.782 120.235 131.809 119.908 131.757C119.435 131.664 118.982 131.486 118.571 131.231L118.28 131.059C118.176 130.972 118.086 130.87 118.014 130.755C117.908 130.579 117.848 130.379 117.842 130.174C117.838 129.901 117.93 129.636 118.102 129.425C118.2 129.302 118.323 129.202 118.463 129.13C118.62 129.062 118.782 129.004 118.947 128.958C118.96 128.952 118.974 128.947 118.987 128.942L118.825 128.928C118.691 128.968 118.56 129.019 118.433 129.08C118.235 129.186 118.071 129.345 117.958 129.54C117.846 129.734 117.79 129.956 117.797 130.181C117.809 130.393 117.877 130.599 117.993 130.777C118.051 130.864 118.119 130.942 118.197 131.01C118.171 130.993 118.144 130.979 118.116 130.967L118.144 130.99L118.228 131.048C118.304 131.098 118.416 131.171 118.563 131.26C118.74 131.37 118.924 131.47 119.113 131.559C119.365 131.679 119.632 131.765 119.906 131.814C120.243 131.872 120.588 131.847 120.912 131.742C121.093 131.681 121.261 131.587 121.407 131.464C121.56 131.331 121.685 131.168 121.775 130.986C121.946 130.592 122.05 130.172 122.083 129.744C122.102 129.579 122.11 129.412 122.109 129.246L122.02 129.244Z" fill="#FAFAFA"/>
<path d="M142.934 143.52C142.903 143.516 142.872 143.51 142.842 143.503L142.585 143.449C142.273 143.375 141.95 143.357 141.631 143.397C141.413 143.433 141.208 143.521 141.031 143.653C140.934 143.727 140.852 143.818 140.789 143.922C140.725 144.033 140.683 144.155 140.667 144.282C140.643 144.561 140.667 144.842 140.736 145.114C140.786 145.41 140.913 145.687 141.103 145.919C141.201 146.03 141.325 146.114 141.464 146.163C141.604 146.212 141.753 146.224 141.899 146.199C142.037 146.168 142.159 146.089 142.244 145.976C142.323 145.866 142.386 145.744 142.432 145.616C142.477 145.492 142.53 145.37 142.59 145.252C142.65 145.139 142.734 145.041 142.835 144.964C142.929 144.898 143.019 144.827 143.104 144.75C143.18 144.676 143.238 144.586 143.277 144.488C143.34 144.317 143.34 144.13 143.277 143.96C143.229 143.831 143.148 143.718 143.042 143.63C142.951 143.556 142.846 143.501 142.733 143.468C142.764 143.472 142.794 143.479 142.823 143.489C142.907 143.516 142.985 143.558 143.054 143.613C143.141 143.681 143.211 143.767 143.263 143.864C143.314 143.961 143.344 144.068 143.352 144.178C143.359 144.287 143.344 144.397 143.306 144.5C143.268 144.604 143.21 144.698 143.134 144.777C143.049 144.858 142.959 144.932 142.863 144.998C142.767 145.072 142.688 145.167 142.632 145.274C142.573 145.391 142.521 145.511 142.478 145.635C142.432 145.767 142.367 145.893 142.285 146.007C142.195 146.129 142.064 146.215 141.916 146.249C141.761 146.277 141.602 146.265 141.454 146.214C141.305 146.162 141.173 146.073 141.069 145.956C140.871 145.717 140.74 145.431 140.689 145.126C140.62 144.848 140.598 144.561 140.624 144.275C140.641 144.142 140.685 144.013 140.755 143.898C140.822 143.789 140.908 143.694 141.01 143.616C141.193 143.482 141.405 143.394 141.629 143.359C141.813 143.335 141.999 143.335 142.183 143.359C142.322 143.377 142.459 143.402 142.595 143.434L142.851 143.497L142.916 143.516C142.925 143.52 142.934 143.52 142.934 143.52Z" fill="#FAFAFA"/>
<path d="M125.182 135.412C125.151 135.409 125.12 135.403 125.09 135.395L124.833 135.342C124.521 135.267 124.198 135.25 123.879 135.29C123.661 135.326 123.456 135.413 123.279 135.545C123.179 135.62 123.095 135.715 123.032 135.824C122.969 135.932 122.93 136.052 122.915 136.177C122.891 136.455 122.915 136.736 122.984 137.006C123.034 137.302 123.16 137.58 123.351 137.812C123.449 137.923 123.573 138.006 123.713 138.055C123.852 138.104 124.001 138.117 124.147 138.091C124.285 138.061 124.407 137.982 124.492 137.869C124.571 137.758 124.635 137.637 124.68 137.508C124.726 137.384 124.779 137.263 124.838 137.144C124.899 137.032 124.982 136.934 125.083 136.856C125.177 136.791 125.267 136.719 125.352 136.642C125.428 136.568 125.486 136.479 125.525 136.38C125.588 136.21 125.588 136.023 125.525 135.852C125.477 135.724 125.396 135.61 125.29 135.523C125.199 135.45 125.094 135.395 124.981 135.361C125.012 135.364 125.042 135.371 125.071 135.381C125.155 135.409 125.233 135.452 125.302 135.507C125.415 135.594 125.501 135.71 125.552 135.842C125.618 136.02 125.618 136.216 125.552 136.394C125.514 136.497 125.455 136.592 125.38 136.672C125.295 136.751 125.204 136.824 125.109 136.891C125.013 136.965 124.934 137.059 124.878 137.167C124.819 137.284 124.768 137.404 124.724 137.527C124.678 137.66 124.613 137.786 124.531 137.902C124.441 138.023 124.31 138.108 124.162 138.141C124.008 138.17 123.848 138.157 123.7 138.106C123.552 138.055 123.419 137.966 123.315 137.848C123.117 137.61 122.986 137.324 122.936 137.018C122.866 136.741 122.844 136.454 122.87 136.17C122.887 136.036 122.932 135.906 123.001 135.79C123.068 135.682 123.155 135.586 123.256 135.509C123.439 135.375 123.652 135.287 123.876 135.252C124.059 135.227 124.246 135.227 124.429 135.252C124.568 135.268 124.706 135.293 124.842 135.324L125.097 135.388L125.163 135.407L125.182 135.412Z" fill="#FAFAFA"/>
<path d="M135.043 136.944C135.012 136.942 134.982 136.937 134.952 136.929L134.695 136.874C134.382 136.8 134.059 136.783 133.741 136.824C133.524 136.859 133.319 136.946 133.142 137.077C133.042 137.153 132.958 137.247 132.895 137.356C132.833 137.464 132.792 137.584 132.777 137.708C132.754 137.988 132.777 138.268 132.846 138.54C132.896 138.836 133.023 139.113 133.213 139.346C133.311 139.456 133.435 139.539 133.574 139.588C133.714 139.637 133.863 139.649 134.008 139.623C134.146 139.594 134.269 139.515 134.353 139.402C134.431 139.291 134.494 139.17 134.54 139.042C134.585 138.918 134.638 138.796 134.698 138.678C134.758 138.565 134.842 138.467 134.943 138.39C135.037 138.324 135.127 138.252 135.212 138.174C135.288 138.1 135.347 138.011 135.385 137.912C135.448 137.742 135.448 137.555 135.385 137.384C135.336 137.256 135.256 137.143 135.15 137.055C135.059 136.982 134.954 136.927 134.842 136.893C134.872 136.896 134.902 136.903 134.931 136.913C135.015 136.942 135.094 136.985 135.164 137.039C135.275 137.127 135.362 137.242 135.414 137.374C135.48 137.552 135.48 137.748 135.414 137.926C135.377 138.03 135.318 138.124 135.242 138.204C135.155 138.283 135.064 138.356 134.969 138.424C134.874 138.5 134.795 138.593 134.738 138.7C134.68 138.817 134.628 138.937 134.584 139.059C134.538 139.193 134.473 139.319 134.391 139.433C134.301 139.555 134.17 139.641 134.022 139.675C133.867 139.703 133.707 139.691 133.557 139.639C133.408 139.588 133.275 139.498 133.17 139.38C132.973 139.141 132.842 138.854 132.79 138.549C132.721 138.271 132.699 137.984 132.725 137.7C132.743 137.566 132.788 137.437 132.856 137.32C132.922 137.212 133.009 137.117 133.111 137.041C133.294 136.906 133.506 136.818 133.731 136.784C133.915 136.759 134.102 136.759 134.286 136.784C134.448 136.803 134.584 136.832 134.697 136.856L134.952 136.92L135.017 136.939L135.043 136.944Z" fill="#FAFAFA"/>
<path d="M126.27 116.955L126.896 114.442C126.918 114.364 126.949 114.289 126.991 114.219L128.243 111.913C128.243 111.913 128.726 111.269 129.008 111.683C129.055 111.759 129.082 111.844 129.088 111.933C129.093 112.022 129.076 112.11 129.039 112.191L128.682 113.01L126.27 116.955Z" fill="#FC9D9D"/>
<path opacity="0.15" d="M126.27 116.955L126.896 114.442C126.918 114.364 126.949 114.289 126.991 114.219L128.243 111.913C128.243 111.913 128.726 111.269 129.008 111.683C129.055 111.759 129.082 111.844 129.088 111.933C129.093 112.022 129.076 112.11 129.039 112.191L128.682 113.01L126.27 116.955Z" fill="black"/>
<path d="M129.068 113.382L127.907 116.187L127.893 119.81C128.238 122.225 125.489 122.656 125.489 122.656L113.577 128.333L116.248 128.757L114.5 135.585L107.236 133.611C106.527 133.445 105.869 133.107 105.32 132.628C103.265 130.784 103.564 127.503 107.811 125.181C113.481 122.076 125.078 119.585 125.078 119.585L126.989 115.316L128.87 112.33C128.87 112.33 129.548 112.353 129.068 113.382Z" fill="#FC9D9D"/>
<path opacity="0.15" d="M114.731 134.072L107.659 132.249C106.956 132.08 106.305 131.745 105.758 131.272C103.957 129.682 104.814 127.788 104.911 127.607C103.569 129.504 103.942 131.504 105.47 132.756C105.984 133.167 106.583 133.458 107.224 133.608L114.435 135.566L114.731 134.072Z" fill="black"/>
<path opacity="0.2" d="M114.1 128.023C113.249 128.509 112.371 128.948 111.471 129.337" stroke="black" stroke-width="1.03" stroke-miterlimit="10"/>
<path opacity="0.2" d="M114.732 134.291L125.606 137.774L125.168 139.967L114.364 136.142L114.732 134.291Z" fill="black"/>
<path d="M102.029 73.6264H101.123V74.3078H102.029V73.6264Z" fill="#424350"/>
<path d="M102.029 110.64H101.123V111.299H102.029V110.64Z" fill="#424350"/>
<path d="M102.029 109.318H101.123V109.977H102.029V109.318Z" fill="#424350"/>
<path d="M102.029 107.997H101.123V108.656H102.029V107.997Z" fill="#424350"/>
<path d="M102.029 106.677H101.123V107.336H102.029V106.677Z" fill="#424350"/>
<path d="M102.029 104.035H101.123V104.694H102.029V104.035Z" fill="#424350"/>
<path d="M102.029 105.356H101.123V106.015H102.029V105.356Z" fill="#424350"/>
<path d="M102.029 100.071H101.123V100.729H102.029V100.071Z" fill="#424350"/>
<path d="M102.029 96.1084H101.123V96.7673H102.029V96.1084Z" fill="#424350"/>
<path d="M102.029 94.787H101.123V95.446H102.029V94.787Z" fill="#424350"/>
<path d="M102.029 92.1443H101.123V92.8033H102.029V92.1443Z" fill="#424350"/>
<path d="M102.029 93.4657H101.123V94.1246H102.029V93.4657Z" fill="#424350"/>
<path d="M102.029 102.713H101.123V103.372H102.029V102.713Z" fill="#424350"/>
<path d="M102.029 97.4282H101.123V98.0871H102.029V97.4282Z" fill="#424350"/>
<path d="M102.029 98.7495H101.123V99.4085H102.029V98.7495Z" fill="#424350"/>
<path d="M102.029 80.2539H101.123V80.9128H102.029V80.2539Z" fill="#424350"/>
<path d="M102.029 101.392H101.123V102.051H102.029V101.392Z" fill="#424350"/>
<path d="M102.029 85.5374H101.123V86.1964H102.029V85.5374Z" fill="#424350"/>
<path d="M102.029 84.2181H101.123V84.8771H102.029V84.2181Z" fill="#424350"/>
<path d="M102.029 90.823H101.123V91.4819H102.029V90.823Z" fill="#424350"/>
<path d="M102.029 82.8968H101.123V83.5557H102.029V82.8968Z" fill="#424350"/>
<path d="M102.029 88.1801H101.123V88.839H102.029V88.1801Z" fill="#424350"/>
<path d="M102.029 89.5016H101.123V90.1606H102.029V89.5016Z" fill="#424350"/>
<path d="M102.029 86.8587H101.123V87.5177H102.029V86.8587Z" fill="#424350"/>
<path d="M102.029 76.2899H101.123V76.9488H102.029V76.2899Z" fill="#424350"/>
<path d="M102.029 74.9685H101.123V75.6274H102.029V74.9685Z" fill="#424350"/>
<path d="M102.029 81.5752H101.123V82.2342H102.029V81.5752Z" fill="#424350"/>
<path d="M102.029 77.6112H101.123V78.2702H102.029V77.6112Z" fill="#424350"/>
<path d="M102.029 78.9325H101.123V79.5915H102.029V78.9325Z" fill="#424350"/>
<path d="M102.029 111.961H101.123V112.643H102.029V111.961Z" fill="#424350"/>
<path d="M116.472 80.7317H115.566V81.4131H116.472V80.7317Z" fill="#424350"/>
<path d="M116.472 92.8H115.566V93.4676H116.472V92.8Z" fill="#424350"/>
<path d="M116.472 96.8089H115.566V97.4765H116.472V96.8089Z" fill="#424350"/>
<path d="M116.472 98.1458H115.566V98.8133H116.472V98.1458Z" fill="#424350"/>
<path d="M116.472 95.4737H115.566V96.1413H116.472V95.4737Z" fill="#424350"/>
<path d="M116.472 99.4826H115.566V100.15H116.472V99.4826Z" fill="#424350"/>
<path d="M116.472 100.82H115.566V101.487H116.472V100.82Z" fill="#424350"/>
<path d="M116.472 103.491H115.566V104.159H116.472V103.491Z" fill="#424350"/>
<path d="M116.472 102.154H115.566V102.822H116.472V102.154Z" fill="#424350"/>
<path d="M116.472 94.1369H115.566V94.8044H116.472V94.1369Z" fill="#424350"/>
<path d="M116.472 90.1278H115.566V90.7954H116.472V90.1278Z" fill="#424350"/>
<path d="M116.472 88.7909H115.566V89.4585H116.472V88.7909Z" fill="#424350"/>
<path d="M116.472 86.1189H115.566V86.7865H116.472V86.1189Z" fill="#424350"/>
<path d="M116.472 84.782H115.566V85.4496H116.472V84.782Z" fill="#424350"/>
<path d="M116.472 83.4452H115.566V84.1127H116.472V83.4452Z" fill="#424350"/>
<path d="M116.472 91.4647H115.566V92.1323H116.472V91.4647Z" fill="#424350"/>
<path d="M116.472 82.11H115.566V82.7776H116.472V82.11Z" fill="#424350"/>
<path d="M116.472 87.4558H115.566V88.1233H116.472V87.4558Z" fill="#424350"/>
<path d="M116.472 104.856H115.566V105.537H116.472V104.856Z" fill="#424350"/>
<g opacity="0.7">
<path opacity="0.7" d="M140.544 80.7317H139.639V81.4131H140.544V80.7317Z" fill="#424350"/>
<path opacity="0.7" d="M140.544 83.4451H139.639V84.1127H140.544V83.4451Z" fill="#424350"/>
<path opacity="0.7" d="M140.544 82.11H139.639V82.7776H140.544V82.11Z" fill="#424350"/>
<path opacity="0.7" d="M140.544 103.491H139.639V104.159H140.544V103.491Z" fill="#424350"/>
<path opacity="0.7" d="M140.544 84.782H139.639V85.4496H140.544V84.782Z" fill="#424350"/>
<path opacity="0.7" d="M140.544 90.1278H139.639V90.7954H140.544V90.1278Z" fill="#424350"/>
<path opacity="0.7" d="M140.544 98.1454H139.639V98.813H140.544V98.1454Z" fill="#424350"/>
<path opacity="0.7" d="M140.544 94.1365H139.639V94.8041H140.544V94.1365Z" fill="#424350"/>
<path opacity="0.7" d="M140.544 96.8085H139.639V97.4761H140.544V96.8085Z" fill="#424350"/>
<path opacity="0.7" d="M140.544 86.1189H139.639V86.7865H140.544V86.1189Z" fill="#424350"/>
<path opacity="0.7" d="M140.544 100.819H139.639V101.487H140.544V100.819Z" fill="#424350"/>
<path opacity="0.7" d="M140.544 99.4823H139.639V100.15H140.544V99.4823Z" fill="#424350"/>
<path opacity="0.7" d="M140.544 88.7909H139.639V89.4585H140.544V88.7909Z" fill="#424350"/>
<path opacity="0.7" d="M140.544 92.7997H139.639V93.4672H140.544V92.7997Z" fill="#424350"/>
<path opacity="0.7" d="M140.544 87.4558H139.639V88.1233H140.544V87.4558Z" fill="#424350"/>
<path opacity="0.7" d="M140.544 102.154H139.639V102.822H140.544V102.154Z" fill="#424350"/>
<path opacity="0.7" d="M140.544 91.4647H139.639V92.1322H140.544V91.4647Z" fill="#424350"/>
<path opacity="0.7" d="M140.544 95.4734H139.639V96.141H140.544V95.4734Z" fill="#424350"/>
<path opacity="0.7" d="M140.544 104.856H139.639V105.537H140.544V104.856Z" fill="#424350"/>
</g>
<path d="M154.986 80.7317H154.08V81.4131H154.986V80.7317Z" fill="#424350"/>
<path d="M154.986 87.4558H154.08V88.1233H154.986V87.4558Z" fill="#424350"/>
<path d="M154.986 103.491H154.08V104.159H154.986V103.491Z" fill="#424350"/>
<path d="M154.986 86.1189H154.08V86.7865H154.986V86.1189Z" fill="#424350"/>
<path d="M154.986 88.7909H154.08V89.4585H154.986V88.7909Z" fill="#424350"/>
<path d="M154.986 84.782H154.08V85.4496H154.986V84.782Z" fill="#424350"/>
<path d="M154.986 102.154H154.08V102.822H154.986V102.154Z" fill="#424350"/>
<path d="M154.986 82.11H154.08V82.7776H154.986V82.11Z" fill="#424350"/>
<path d="M154.986 83.4452H154.08V84.1127H154.986V83.4452Z" fill="#424350"/>
<path d="M154.986 94.1369H154.08V94.8044H154.986V94.1369Z" fill="#424350"/>
<path d="M154.986 95.4737H154.08V96.1413H154.986V95.4737Z" fill="#424350"/>
<path d="M154.986 92.8H154.08V93.4676H154.986V92.8Z" fill="#424350"/>
<path d="M154.986 90.1278H154.08V90.7954H154.986V90.1278Z" fill="#424350"/>
<path d="M154.986 96.8089H154.08V97.4765H154.986V96.8089Z" fill="#424350"/>
<path d="M154.986 100.82H154.08V101.487H154.986V100.82Z" fill="#424350"/>
<path d="M154.986 99.4826H154.08V100.15H154.986V99.4826Z" fill="#424350"/>
<path d="M154.986 98.1458H154.08V98.8133H154.986V98.1458Z" fill="#424350"/>
<path d="M154.986 91.4647H154.08V92.1323H154.986V91.4647Z" fill="#424350"/>
<path d="M154.986 104.856H154.08V105.537H154.986V104.856Z" fill="#424350"/>
<path d="M92.3996 78.3393H91.494V79.0207H92.3996V78.3393Z" fill="#424350"/>
<path d="M92.3996 99.3721H91.494V100.028H92.3996V99.3721Z" fill="#424350"/>
<path d="M92.3996 98.0574H91.494V98.713H92.3996V98.0574Z" fill="#424350"/>
<path d="M92.3996 96.7449H91.494V97.4004H92.3996V96.7449Z" fill="#424350"/>
<path d="M92.3996 95.4322H91.494V96.0878H92.3996V95.4322Z" fill="#424350"/>
<path d="M92.3996 100.685H91.494V101.34H92.3996V100.685Z" fill="#424350"/>
<path d="M92.3996 101.997H91.494V102.653H92.3996V101.997Z" fill="#424350"/>
<path d="M92.3996 105.936H91.494V106.591H92.3996V105.936Z" fill="#424350"/>
<path d="M92.3996 104.623H91.494V105.278H92.3996V104.623Z" fill="#424350"/>
<path d="M92.3996 94.1193H91.494V94.7748H92.3996V94.1193Z" fill="#424350"/>
<path d="M92.3996 103.31H91.494V103.966H92.3996V103.31Z" fill="#424350"/>
<path d="M92.3996 82.303H91.494V82.9585H92.3996V82.303Z" fill="#424350"/>
<path d="M92.3996 86.2433H91.494V86.8988H92.3996V86.2433Z" fill="#424350"/>
<path d="M92.3996 92.8067H91.494V93.4622H92.3996V92.8067Z" fill="#424350"/>
<path d="M92.3996 87.5558H91.494V88.2113H92.3996V87.5558Z" fill="#424350"/>
<path d="M92.3996 83.6159H91.494V84.2714H92.3996V83.6159Z" fill="#424350"/>
<path d="M92.3996 84.9286H91.494V85.5842H92.3996V84.9286Z" fill="#424350"/>
<path d="M92.3996 80.9905H91.494V81.646H92.3996V80.9905Z" fill="#424350"/>
<path d="M92.3996 91.494H91.494V92.1495H92.3996V91.494Z" fill="#424350"/>
<path d="M92.3996 90.1811H91.494V90.8366H92.3996V90.1811Z" fill="#424350"/>
<path d="M92.3996 88.8685H91.494V89.524H92.3996V88.8685Z" fill="#424350"/>
<path d="M92.3996 79.6777H91.494V80.3333H92.3996V79.6777Z" fill="#424350"/>
<path d="M92.3996 107.248H91.494V107.93H92.3996V107.248Z" fill="#424350"/>
<path d="M145.359 75.4653H144.453V76.1467H145.359V75.4653Z" fill="#424350"/>
<path d="M145.359 103.443H144.453V104.109H145.359V103.443Z" fill="#424350"/>
<path d="M145.359 104.773H144.453V105.439H145.359V104.773Z" fill="#424350"/>
<path d="M145.359 102.113H144.453V102.779H145.359V102.113Z" fill="#424350"/>
<path d="M145.359 100.783H144.453V101.449H145.359V100.783Z" fill="#424350"/>
<path d="M145.359 99.453H144.453V100.119H145.359V99.453Z" fill="#424350"/>
<path d="M145.359 79.4999H144.453V80.1658H145.359V79.4999Z" fill="#424350"/>
<path d="M145.359 108.765H144.453V109.431H145.359V108.765Z" fill="#424350"/>
<path d="M145.359 76.84H144.453V77.5058H145.359V76.84Z" fill="#424350"/>
<path d="M145.359 107.433H144.453V108.099H145.359V107.433Z" fill="#424350"/>
<path d="M145.359 80.83H144.453V81.4959H145.359V80.83Z" fill="#424350"/>
<path d="M145.359 98.1232H144.453V98.789H145.359V98.1232Z" fill="#424350"/>
<path d="M145.359 78.1701H144.453V78.836H145.359V78.1701Z" fill="#424350"/>
<path d="M145.359 96.793H144.453V97.4589H145.359V96.793Z" fill="#424350"/>
<path d="M145.359 86.1517H144.453V86.8175H145.359V86.1517Z" fill="#424350"/>
<path d="M145.359 87.4818H144.453V88.1477H145.359V87.4818Z" fill="#424350"/>
<path d="M145.359 88.8116H144.453V89.4775H145.359V88.8116Z" fill="#424350"/>
<path d="M145.359 84.8219H144.453V85.4877H145.359V84.8219Z" fill="#424350"/>
<path d="M145.359 90.1418H144.453V90.8076H145.359V90.1418Z" fill="#424350"/>
<path d="M145.359 106.103H144.453V106.769H145.359V106.103Z" fill="#424350"/>
<path d="M145.359 94.1314H144.453V94.7972H145.359V94.1314Z" fill="#424350"/>
<path d="M145.359 91.4716H144.453V92.1374H145.359V91.4716Z" fill="#424350"/>
<path d="M145.359 92.8016H144.453V93.4676H145.359V92.8016Z" fill="#424350"/>
<path d="M145.359 95.4615H144.453V96.1273H145.359V95.4615Z" fill="#424350"/>
<path d="M145.359 83.49H144.453V84.1559H145.359V83.49Z" fill="#424350"/>
<path d="M145.359 82.1599H144.453V82.8257H145.359V82.1599Z" fill="#424350"/>
<path d="M145.359 110.122H144.453V110.804H145.359V110.122Z" fill="#424350"/>
<g opacity="0.7">
<path opacity="0.7" d="M97.2141 85.2514H96.3085V85.9328H97.2141V85.2514Z" fill="#424350"/>
<path opacity="0.7" d="M97.2141 96.2224H96.3085V96.9055H97.2141V96.2224Z" fill="#424350"/>
<path opacity="0.7" d="M97.2141 98.9651H96.3085V99.6483H97.2141V98.9651Z" fill="#424350"/>
<path opacity="0.7" d="M97.2141 97.5939H96.3085V98.277H97.2141V97.5939Z" fill="#424350"/>
<path opacity="0.7" d="M97.2141 94.851H96.3085V95.5341H97.2141V94.851Z" fill="#424350"/>
<path opacity="0.7" d="M97.2141 92.1065H96.3085V92.7896H97.2141V92.1065Z" fill="#424350"/>
<path opacity="0.7" d="M97.2141 86.6209H96.3085V87.304H97.2141V86.6209Z" fill="#424350"/>
<path opacity="0.7" d="M97.2141 87.9926H96.3085V88.6757H97.2141V87.9926Z" fill="#424350"/>
<path opacity="0.7" d="M97.2141 93.4795H96.3085V94.1626H97.2141V93.4795Z" fill="#424350"/>
<path opacity="0.7" d="M97.2141 89.3638H96.3085V90.0469H97.2141V89.3638Z" fill="#424350"/>
<path opacity="0.7" d="M97.2141 90.735H96.3085V91.4181H97.2141V90.735Z" fill="#424350"/>
<path opacity="0.7" d="M97.2141 100.336H96.3085V101.018H97.2141V100.336Z" fill="#424350"/>
</g>
<path d="M106.843 78.3393H105.937V79.0207H106.843V78.3393Z" fill="#424350"/>
<path d="M106.843 99.3721H105.937V100.028H106.843V99.3721Z" fill="#424350"/>
<path d="M106.843 98.0574H105.937V98.713H106.843V98.0574Z" fill="#424350"/>
<path d="M106.843 96.7449H105.937V97.4004H106.843V96.7449Z" fill="#424350"/>
<path d="M106.843 95.4322H105.937V96.0878H106.843V95.4322Z" fill="#424350"/>
<path d="M106.843 100.685H105.937V101.34H106.843V100.685Z" fill="#424350"/>
<path d="M106.843 101.997H105.937V102.653H106.843V101.997Z" fill="#424350"/>
<path d="M106.843 105.936H105.937V106.591H106.843V105.936Z" fill="#424350"/>
<path d="M106.843 104.623H105.937V105.278H106.843V104.623Z" fill="#424350"/>
<path d="M106.843 94.1193H105.937V94.7748H106.843V94.1193Z" fill="#424350"/>
<path d="M106.843 103.31H105.937V103.966H106.843V103.31Z" fill="#424350"/>
<path d="M106.843 82.303H105.937V82.9585H106.843V82.303Z" fill="#424350"/>
<path d="M106.843 86.2433H105.937V86.8988H106.843V86.2433Z" fill="#424350"/>
<path d="M106.843 92.8067H105.937V93.4622H106.843V92.8067Z" fill="#424350"/>
<path d="M106.843 87.5558H105.937V88.2113H106.843V87.5558Z" fill="#424350"/>
<path d="M106.843 83.6159H105.937V84.2714H106.843V83.6159Z" fill="#424350"/>
<path d="M106.843 84.9286H105.937V85.5842H106.843V84.9286Z" fill="#424350"/>
<path d="M106.843 80.9905H105.937V81.646H106.843V80.9905Z" fill="#424350"/>
<path d="M106.843 91.494H105.937V92.1495H106.843V91.494Z" fill="#424350"/>
<path d="M106.843 90.1811H105.937V90.8366H106.843V90.1811Z" fill="#424350"/>
<path d="M106.843 88.8685H105.937V89.524H106.843V88.8685Z" fill="#424350"/>
<path d="M106.843 79.6777H105.937V80.3333H106.843V79.6777Z" fill="#424350"/>
<path d="M106.843 107.248H105.937V107.93H106.843V107.248Z" fill="#424350"/>
<g opacity="0.7">
<path opacity="0.7" d="M111.658 85.2514H110.752V85.9328H111.658V85.2514Z" fill="#424350"/>
<path opacity="0.7" d="M111.658 96.2224H110.752V96.9055H111.658V96.2224Z" fill="#424350"/>
<path opacity="0.7" d="M111.658 98.9651H110.752V99.6483H111.658V98.9651Z" fill="#424350"/>
<path opacity="0.7" d="M111.658 97.5939H110.752V98.277H111.658V97.5939Z" fill="#424350"/>
<path opacity="0.7" d="M111.658 94.851H110.752V95.5341H111.658V94.851Z" fill="#424350"/>
<path opacity="0.7" d="M111.658 92.1065H110.752V92.7896H111.658V92.1065Z" fill="#424350"/>
<path opacity="0.7" d="M111.658 86.6209H110.752V87.304H111.658V86.6209Z" fill="#424350"/>
<path opacity="0.7" d="M111.658 87.9926H110.752V88.6757H111.658V87.9926Z" fill="#424350"/>
<path opacity="0.7" d="M111.658 93.4795H110.752V94.1626H111.658V93.4795Z" fill="#424350"/>
<path opacity="0.7" d="M111.658 89.3638H110.752V90.0469H111.658V89.3638Z" fill="#424350"/>
<path opacity="0.7" d="M111.658 90.735H110.752V91.4181H111.658V90.735Z" fill="#424350"/>
<path opacity="0.7" d="M111.658 100.336H110.752V101.018H111.658V100.336Z" fill="#424350"/>
</g>
<path d="M135.73 85.2514H134.824V85.9328H135.73V85.2514Z" fill="#424350"/>
<path d="M135.73 97.5746H134.824V98.2577H135.73V97.5746Z" fill="#424350"/>
<path d="M135.73 98.9408H134.824V99.6239H135.73V98.9408Z" fill="#424350"/>
<path d="M135.73 93.4762H134.824V94.1593H135.73V93.4762Z" fill="#424350"/>
<path d="M135.73 96.2084H134.824V96.8915H135.73V96.2084Z" fill="#424350"/>
<path d="M135.73 94.8424H134.824V95.5255H135.73V94.8424Z" fill="#424350"/>
<path d="M135.73 92.11H134.824V92.7931H135.73V92.11Z" fill="#424350"/>
<path d="M135.73 88.0114H134.824V88.6945H135.73V88.0114Z" fill="#424350"/>
<path d="M135.73 90.7438H134.824V91.4269H135.73V90.7438Z" fill="#424350"/>
<path d="M135.73 89.3776H134.824V90.0607H135.73V89.3776Z" fill="#424350"/>
<path d="M135.73 86.6448H134.824V87.3279H135.73V86.6448Z" fill="#424350"/>
<path d="M135.73 100.336H134.824V101.018H135.73V100.336Z" fill="#424350"/>
<g opacity="0.7">
<path opacity="0.7" d="M126.101 89.8361H125.195V90.5175H126.101V89.8361Z" fill="#424350"/>
<path opacity="0.7" d="M126.101 92.7653H125.195V93.5035H126.101V92.7653Z" fill="#424350"/>
<path opacity="0.7" d="M126.101 91.2885H125.195V92.0269H126.101V91.2885Z" fill="#424350"/>
<path opacity="0.7" d="M126.101 94.2416H125.195V94.9799H126.101V94.2416Z" fill="#424350"/>
<path opacity="0.7" d="M126.101 95.751H125.195V96.4323H126.101V95.751Z" fill="#424350"/>
</g>
<path d="M130.915 91.6201H130.01V92.3015H130.915V91.6201Z" fill="#424350"/>
<path d="M130.915 92.8033H130.01V93.4657H130.915V92.8033Z" fill="#424350"/>
<path d="M130.915 93.9676H130.01V94.649H130.915V93.9676Z" fill="#424350"/>
<path d="M121.286 88.2543H120.381V88.9356H121.286V88.2543Z" fill="#424350"/>
<path d="M121.286 92.1719H120.381V92.8136H121.286V92.1719Z" fill="#424350"/>
<path d="M121.286 90.887H120.381V91.5287H121.286V90.887Z" fill="#424350"/>
<path d="M121.286 93.4553H120.381V94.097H121.286V93.4553Z" fill="#424350"/>
<path d="M121.286 89.6032H120.381V90.2449H121.286V89.6032Z" fill="#424350"/>
<path d="M121.286 94.7406H120.381V95.3823H121.286V94.7406Z" fill="#424350"/>
<path d="M121.286 96.0238H120.381V96.6656H121.286V96.0238Z" fill="#424350"/>
<path d="M121.286 97.3331H120.381V98.0145H121.286V97.3331Z" fill="#424350"/>
<path d="M159.801 88.2543H158.895V88.9356H159.801V88.2543Z" fill="#424350"/>
<path d="M159.801 90.887H158.895V91.5287H159.801V90.887Z" fill="#424350"/>
<path d="M159.801 96.0238H158.895V96.6656H159.801V96.0238Z" fill="#424350"/>
<path d="M159.801 89.6032H158.895V90.2449H159.801V89.6032Z" fill="#424350"/>
<path d="M159.801 94.7406H158.895V95.3823H159.801V94.7406Z" fill="#424350"/>
<path d="M159.801 92.1719H158.895V92.8136H159.801V92.1719Z" fill="#424350"/>
<path d="M159.801 93.4553H158.895V94.097H159.801V93.4553Z" fill="#424350"/>
<path d="M159.801 97.3331H158.895V98.0145H159.801V97.3331Z" fill="#424350"/>
<path d="M87.5869 88.2543H86.6813V88.9356H87.5869V88.2543Z" fill="#424350"/>
<path d="M87.5869 93.4586H86.6813V94.1003H87.5869V93.4586Z" fill="#424350"/>
<path d="M87.5869 94.7506H86.6813V95.3923H87.5869V94.7506Z" fill="#424350"/>
<path d="M87.5869 96.0428H86.6813V96.6845H87.5869V96.0428Z" fill="#424350"/>
<path d="M87.5869 92.1686H86.6813V92.8103H87.5869V92.1686Z" fill="#424350"/>
<path d="M87.5869 89.5844H86.6813V90.2261H87.5869V89.5844Z" fill="#424350"/>
<path d="M87.5869 90.8764H86.6813V91.5181H87.5869V90.8764Z" fill="#424350"/>
<path d="M87.5869 97.3331H86.6813V98.0145H87.5869V97.3331Z" fill="#424350"/>
<g opacity="0.7">
<path opacity="0.7" d="M82.7724 87.3076H81.8668V88.0442H82.7724V87.3076Z" fill="#424350"/>
<path opacity="0.7" d="M82.7724 92.8015H81.8668V93.5071H82.7724V92.8015Z" fill="#424350"/>
<path opacity="0.7" d="M82.7724 91.4355H81.8668V92.141H82.7724V91.4355Z" fill="#424350"/>
<path opacity="0.7" d="M82.7724 94.1662H81.8668V94.8717H82.7724V94.1662Z" fill="#424350"/>
<path opacity="0.7" d="M82.7724 96.8984H81.8668V97.604H82.7724V96.8984Z" fill="#424350"/>
<path opacity="0.7" d="M82.7724 95.5324H81.8668V96.2379H82.7724V95.5324Z" fill="#424350"/>
<path opacity="0.7" d="M82.7724 90.0693H81.8668V90.7749H82.7724V90.0693Z" fill="#424350"/>
<path opacity="0.7" d="M82.7724 88.7031H81.8668V89.4086H82.7724V88.7031Z" fill="#424350"/>
<path opacity="0.7" d="M82.7724 98.2646H81.8668V98.9633H82.7724V98.2646Z" fill="#424350"/>
</g>
<g opacity="0.7">
<path opacity="0.7" d="M150.172 86.2931H149.266V86.9745H150.172V86.2931Z" fill="#424350"/>
<path opacity="0.7" d="M150.172 97.9783H149.266V98.6234H150.172V97.9783Z" fill="#424350"/>
<path opacity="0.7" d="M150.172 91.5201H149.266V92.1652H150.172V91.5201Z" fill="#424350"/>
<path opacity="0.7" d="M150.172 88.9376H149.266V89.5827H150.172V88.9376Z" fill="#424350"/>
<path opacity="0.7" d="M150.172 90.228H149.266V90.8732H150.172V90.228Z" fill="#424350"/>
<path opacity="0.7" d="M150.172 87.6455H149.266V88.2907H150.172V87.6455Z" fill="#424350"/>
<path opacity="0.7" d="M150.172 92.8117H149.266V93.4569H150.172V92.8117Z" fill="#424350"/>
<path opacity="0.7" d="M150.172 96.6862H149.266V97.3314H150.172V96.6862Z" fill="#424350"/>
<path opacity="0.7" d="M150.172 95.3942H149.266V96.0394H150.172V95.3942Z" fill="#424350"/>
<path opacity="0.7" d="M150.172 94.1022H149.266V94.7474H150.172V94.1022Z" fill="#424350"/>
<path opacity="0.7" d="M150.172 99.2943H149.266V99.9756H150.172V99.2943Z" fill="#424350"/>
</g>
<path d="M77.9234 91.232H77.0178V91.9133H77.9234V91.232Z" fill="#424350"/>
<path d="M77.9579 92.7393H77.0523V93.5276H77.9579V92.7393Z" fill="#424350"/>
<path d="M77.9234 94.3558H77.0178V95.0371H77.9234V94.3558Z" fill="#424350"/>
<g opacity="0.7">
<path opacity="0.7" d="M164.624 91.232H163.718V91.9133H164.624V91.232Z" fill="#424350"/>
<path opacity="0.7" d="M164.615 92.7396H163.709V93.5279H164.615V92.7396Z" fill="#424350"/>
<path opacity="0.7" d="M164.624 94.3558H163.718V95.0372H164.624V94.3558Z" fill="#424350"/>
</g>
<g opacity="0.7">
<path opacity="0.7" d="M174.251 80.7317H173.345V81.4131H174.251V80.7317Z" fill="#424350"/>
<path opacity="0.7" d="M174.251 83.4451H173.345V84.1127H174.251V83.4451Z" fill="#424350"/>
<path opacity="0.7" d="M174.251 82.11H173.345V82.7776H174.251V82.11Z" fill="#424350"/>
<path opacity="0.7" d="M174.251 103.491H173.345V104.159H174.251V103.491Z" fill="#424350"/>
<path opacity="0.7" d="M174.251 84.782H173.345V85.4496H174.251V84.782Z" fill="#424350"/>
<path opacity="0.7" d="M174.251 90.1278H173.345V90.7954H174.251V90.1278Z" fill="#424350"/>
<path opacity="0.7" d="M174.251 98.1454H173.345V98.813H174.251V98.1454Z" fill="#424350"/>
<path opacity="0.7" d="M174.251 94.1365H173.345V94.8041H174.251V94.1365Z" fill="#424350"/>
<path opacity="0.7" d="M174.251 96.8085H173.345V97.4761H174.251V96.8085Z" fill="#424350"/>
<path opacity="0.7" d="M174.251 86.1189H173.345V86.7865H174.251V86.1189Z" fill="#424350"/>
<path opacity="0.7" d="M174.251 100.819H173.345V101.487H174.251V100.819Z" fill="#424350"/>
<path opacity="0.7" d="M174.251 99.4823H173.345V100.15H174.251V99.4823Z" fill="#424350"/>
<path opacity="0.7" d="M174.251 88.7909H173.345V89.4585H174.251V88.7909Z" fill="#424350"/>
<path opacity="0.7" d="M174.251 92.7997H173.345V93.4672H174.251V92.7997Z" fill="#424350"/>
<path opacity="0.7" d="M174.251 87.4558H173.345V88.1233H174.251V87.4558Z" fill="#424350"/>
<path opacity="0.7" d="M174.251 102.154H173.345V102.822H174.251V102.154Z" fill="#424350"/>
<path opacity="0.7" d="M174.251 91.4647H173.345V92.1322H174.251V91.4647Z" fill="#424350"/>
<path opacity="0.7" d="M174.251 95.4734H173.345V96.141H174.251V95.4734Z" fill="#424350"/>
<path opacity="0.7" d="M174.251 104.856H173.345V105.537H174.251V104.856Z" fill="#424350"/>
</g>
<g opacity="0.7">
<path opacity="0.7" d="M188.694 80.7317H187.789V81.4131H188.694V80.7317Z" fill="#424350"/>
<path opacity="0.7" d="M188.694 87.4558H187.789V88.1233H188.694V87.4558Z" fill="#424350"/>
<path opacity="0.7" d="M188.694 103.491H187.789V104.159H188.694V103.491Z" fill="#424350"/>
<path opacity="0.7" d="M188.694 86.1189H187.789V86.7865H188.694V86.1189Z" fill="#424350"/>
<path opacity="0.7" d="M188.694 88.7909H187.789V89.4585H188.694V88.7909Z" fill="#424350"/>
<path opacity="0.7" d="M188.694 84.782H187.789V85.4496H188.694V84.782Z" fill="#424350"/>
<path opacity="0.7" d="M188.694 102.154H187.789V102.822H188.694V102.154Z" fill="#424350"/>
<path opacity="0.7" d="M188.694 82.11H187.789V82.7776H188.694V82.11Z" fill="#424350"/>
<path opacity="0.7" d="M188.694 83.4451H187.789V84.1127H188.694V83.4451Z" fill="#424350"/>
<path opacity="0.7" d="M188.694 94.1365H187.789V94.8041H188.694V94.1365Z" fill="#424350"/>
<path opacity="0.7" d="M188.694 95.4734H187.789V96.141H188.694V95.4734Z" fill="#424350"/>
<path opacity="0.7" d="M188.694 92.7997H187.789V93.4672H188.694V92.7997Z" fill="#424350"/>
<path opacity="0.7" d="M188.694 90.1278H187.789V90.7954H188.694V90.1278Z" fill="#424350"/>
<path opacity="0.7" d="M188.694 96.8085H187.789V97.4761H188.694V96.8085Z" fill="#424350"/>
<path opacity="0.7" d="M188.694 100.819H187.789V101.487H188.694V100.819Z" fill="#424350"/>
<path opacity="0.7" d="M188.694 99.4823H187.789V100.15H188.694V99.4823Z" fill="#424350"/>
<path opacity="0.7" d="M188.694 98.1454H187.789V98.813H188.694V98.1454Z" fill="#424350"/>
<path opacity="0.7" d="M188.694 91.4647H187.789V92.1322H188.694V91.4647Z" fill="#424350"/>
<path opacity="0.7" d="M188.694 104.856H187.789V105.537H188.694V104.856Z" fill="#424350"/>
</g>
<path d="M179.065 75.4653H178.16V76.1467H179.065V75.4653Z" fill="#424350"/>
<path d="M179.065 103.443H178.16V104.109H179.065V103.443Z" fill="#424350"/>
<path d="M179.065 104.773H178.16V105.439H179.065V104.773Z" fill="#424350"/>
<path d="M179.065 102.113H178.16V102.779H179.065V102.113Z" fill="#424350"/>
<path d="M179.065 100.783H178.16V101.449H179.065V100.783Z" fill="#424350"/>
<path d="M179.065 99.453H178.16V100.119H179.065V99.453Z" fill="#424350"/>
<path d="M179.065 79.4999H178.16V80.1658H179.065V79.4999Z" fill="#424350"/>
<path d="M179.065 108.765H178.16V109.431H179.065V108.765Z" fill="#424350"/>
<path d="M179.065 76.84H178.16V77.5058H179.065V76.84Z" fill="#424350"/>
<path d="M179.065 107.433H178.16V108.099H179.065V107.433Z" fill="#424350"/>
<path d="M179.065 80.83H178.16V81.4959H179.065V80.83Z" fill="#424350"/>
<path d="M179.065 98.1232H178.16V98.789H179.065V98.1232Z" fill="#424350"/>
<path d="M179.065 78.1701H178.16V78.836H179.065V78.1701Z" fill="#424350"/>
<path d="M179.065 96.793H178.16V97.4589H179.065V96.793Z" fill="#424350"/>
<path d="M179.065 86.1517H178.16V86.8175H179.065V86.1517Z" fill="#424350"/>
<path d="M179.065 87.4818H178.16V88.1477H179.065V87.4818Z" fill="#424350"/>
<path d="M179.065 88.8116H178.16V89.4775H179.065V88.8116Z" fill="#424350"/>
<path d="M179.065 84.8219H178.16V85.4877H179.065V84.8219Z" fill="#424350"/>
<path d="M179.065 90.1418H178.16V90.8076H179.065V90.1418Z" fill="#424350"/>
<path d="M179.065 106.103H178.16V106.769H179.065V106.103Z" fill="#424350"/>
<path d="M179.065 94.1314H178.16V94.7972H179.065V94.1314Z" fill="#424350"/>
<path d="M179.065 91.4716H178.16V92.1374H179.065V91.4716Z" fill="#424350"/>
<path d="M179.065 92.8016H178.16V93.4676H179.065V92.8016Z" fill="#424350"/>
<path d="M179.065 95.4615H178.16V96.1273H179.065V95.4615Z" fill="#424350"/>
<path d="M179.065 83.49H178.16V84.1559H179.065V83.49Z" fill="#424350"/>
<path d="M179.065 82.1599H178.16V82.8257H179.065V82.1599Z" fill="#424350"/>
<path d="M179.065 110.122H178.16V110.804H179.065V110.122Z" fill="#424350"/>
<path d="M169.438 85.2514H168.532V85.9328H169.438V85.2514Z" fill="#424350"/>
<path d="M169.438 97.5746H168.532V98.2577H169.438V97.5746Z" fill="#424350"/>
<path d="M169.438 98.9408H168.532V99.6239H169.438V98.9408Z" fill="#424350"/>
<path d="M169.438 93.4762H168.532V94.1593H169.438V93.4762Z" fill="#424350"/>
<path d="M169.438 96.2084H168.532V96.8915H169.438V96.2084Z" fill="#424350"/>
<path d="M169.438 94.8424H168.532V95.5255H169.438V94.8424Z" fill="#424350"/>
<path d="M169.438 92.11H168.532V92.7931H169.438V92.11Z" fill="#424350"/>
<path d="M169.438 88.0114H168.532V88.6945H169.438V88.0114Z" fill="#424350"/>
<path d="M169.438 90.7438H168.532V91.4269H169.438V90.7438Z" fill="#424350"/>
<path d="M169.438 89.3776H168.532V90.0607H169.438V89.3776Z" fill="#424350"/>
<path d="M169.438 86.6448H168.532V87.3279H169.438V86.6448Z" fill="#424350"/>
<path d="M169.438 100.336H168.532V101.018H169.438V100.336Z" fill="#424350"/>
<path d="M193.509 88.2543H192.603V88.9356H193.509V88.2543Z" fill="#424350"/>
<path d="M193.509 90.887H192.603V91.5287H193.509V90.887Z" fill="#424350"/>
<path d="M193.509 96.0238H192.603V96.6656H193.509V96.0238Z" fill="#424350"/>
<path d="M193.509 89.6032H192.603V90.2449H193.509V89.6032Z" fill="#424350"/>
<path d="M193.509 94.7406H192.603V95.3823H193.509V94.7406Z" fill="#424350"/>
<path d="M193.509 92.1719H192.603V92.8136H193.509V92.1719Z" fill="#424350"/>
<path d="M193.509 93.4553H192.603V94.097H193.509V93.4553Z" fill="#424350"/>
<path d="M193.509 97.3331H192.603V98.0145H193.509V97.3331Z" fill="#424350"/>
<path d="M183.88 86.2931H182.974V86.9745H183.88V86.2931Z" fill="#424350"/>
<path d="M183.88 97.9783H182.974V98.6234H183.88V97.9783Z" fill="#424350"/>
<path d="M183.88 91.5201H182.974V92.1652H183.88V91.5201Z" fill="#424350"/>
<path d="M183.88 88.9376H182.974V89.5827H183.88V88.9376Z" fill="#424350"/>
<path d="M183.88 90.228H182.974V90.8732H183.88V90.228Z" fill="#424350"/>
<path d="M183.88 87.6455H182.974V88.2907H183.88V87.6455Z" fill="#424350"/>
<path d="M183.88 92.8117H182.974V93.4569H183.88V92.8117Z" fill="#424350"/>
<path d="M183.88 96.6862H182.974V97.3314H183.88V96.6862Z" fill="#424350"/>
<path d="M183.88 95.3942H182.974V96.0394H183.88V95.3942Z" fill="#424350"/>
<path d="M183.88 94.1022H182.974V94.7474H183.88V94.1022Z" fill="#424350"/>
<path d="M183.88 99.2943H182.974V99.9756H183.88V99.2943Z" fill="#424350"/>
<g opacity="0.7">
<path opacity="0.7" d="M198.33 91.232H197.425V91.9133H198.33V91.232Z" fill="#424350"/>
<path opacity="0.7" d="M198.323 92.7396H197.418V93.5279H198.323V92.7396Z" fill="#424350"/>
<path opacity="0.7" d="M198.33 94.3558H197.424V95.0372H198.33V94.3558Z" fill="#424350"/>
</g>
<path d="M201.451 93.4519L201.994 93.4465V92.6841L201.451 92.6791V93.4519Z" fill="#424350"/>
<path d="M202.96 93.4344L203.502 93.4293V92.7013L202.96 92.6962V93.4344Z" fill="#424350"/>
<path d="M204.468 93.4176L205.011 93.4124V92.7189L204.468 92.7138V93.4176Z" fill="#424350"/>
<path d="M205.977 93.4001L206.52 93.3949V92.736L205.977 92.7308V93.4001Z" fill="#424350"/>
<path d="M207.486 93.3829L208.03 93.3777V92.7532L207.486 92.7481V93.3829Z" fill="#424350"/>
<path d="M208.996 93.3656L209.539 93.3603V92.7703L208.996 92.7653V93.3656Z" fill="#424350"/>
<path d="M210.505 93.3482L211.049 93.343V92.7876L210.505 92.7824V93.3482Z" fill="#424350"/>
<path d="M212.015 93.3313L212.558 93.3261V92.8052L212.015 92.8V93.3313Z" fill="#424350"/>
<path d="M213.524 93.3139L214.067 93.3087V92.8222L213.524 92.8171V93.3139Z" fill="#424350"/>
<path d="M215.033 93.2966L215.575 93.2915V92.8395L215.033 92.8326V93.2966Z" fill="#424350"/>
<path d="M216.541 93.2794L217.084 93.2742V92.855L216.541 92.8498V93.2794Z" fill="#424350"/>
<path d="M218.05 93.262L218.594 93.2568V92.8721L218.05 92.8687V93.262Z" fill="#424350"/>
<path d="M219.56 93.2451L220.103 93.2399V92.8897L219.56 92.8845V93.2451Z" fill="#424350"/>
<path d="M221.069 93.2278L221.612 93.2226V92.9069L221.069 92.9018V93.2278Z" fill="#424350"/>
<path d="M222.578 93.2104L223.122 93.2052V92.924L222.578 92.9189V93.2104Z" fill="#424350"/>
<path d="M73.7937 93.4312L73.2504 93.426V92.6636L73.7937 92.6584V93.4312Z" fill="#424350"/>
<path d="M72.2844 93.4139L71.741 93.4087V92.6808L72.2844 92.6756V93.4139Z" fill="#424350"/>
<path d="M70.775 93.3967L70.2316 93.3915V92.6981L70.775 92.6929V93.3967Z" fill="#424350"/>
<path d="M69.2674 93.3793L68.7223 93.3741V92.7151L69.2674 92.71V93.3793Z" fill="#424350"/>
<path d="M67.758 93.3623L67.2146 93.3572V92.7327L67.758 92.7275V93.3623Z" fill="#424350"/>
<path d="M66.2486 93.3449L65.7053 93.3397V92.7498L66.2486 92.7446V93.3449Z" fill="#424350"/>
<path d="M64.7392 93.3277L64.1959 93.3225V92.7671L64.7392 92.7619V93.3277Z" fill="#424350"/>
<path d="M63.2299 93.3104L62.6865 93.3053V92.7843L63.2299 92.7791V93.3104Z" fill="#424350"/>
<path d="M61.7205 93.293L61.1771 93.2878V92.8014L61.7205 92.7962V93.293Z" fill="#424350"/>
<path d="M60.2111 93.2761L59.6677 93.2709V92.819L60.2111 92.8138V93.2761Z" fill="#424350"/>
<path d="M58.7018 93.2587L58.1584 93.2535V92.836L58.7018 92.8309V93.2587Z" fill="#424350"/>
<path d="M57.1941 93.2414L56.6508 93.2363V92.8533L57.1941 92.8481V93.2414Z" fill="#424350"/>
<path d="M55.6847 93.2242L55.1414 93.219V92.8706L55.6847 92.8654V93.2242Z" fill="#424350"/>
<path d="M54.1753 93.2067L53.632 93.2016V92.8876L54.1753 92.8824V93.2067Z" fill="#424350"/>
<path d="M52.666 93.1895L52.1226 93.1843V92.9049L52.666 92.898V93.1895Z" fill="#424350"/>
<path d="M51.1566 93.1726L50.6132 93.1674V92.9208L51.1566 92.9156V93.1726Z" fill="#424350"/>
<path d="M49.6473 93.1552L49.1039 93.15V92.9378L49.6473 92.9326V93.1552Z" fill="#424350"/>
<path opacity="0.15" d="M175.686 55.4708H166.554V59.0381H175.686V55.4708Z" stroke="black" stroke-width="2" stroke-miterlimit="10"/>
<path opacity="0.15" d="M171.565 59.7901H162.433V63.3573H171.565V59.7901Z" stroke="black" stroke-width="2" stroke-miterlimit="10"/>
<path opacity="0.15" d="M212.601 117.226H203.469V120.793H212.601V117.226Z" stroke="black" stroke-width="2" stroke-miterlimit="10"/>
<path opacity="0.15" d="M218.83 121.545H209.698V125.112H218.83V121.545Z" stroke="black" stroke-width="2" stroke-miterlimit="10"/>
<path opacity="0.15" d="M64.251 113.086H55.1189V116.653H64.251V113.086Z" stroke="black" stroke-width="2" stroke-miterlimit="10"/>
<path opacity="0.15" d="M116.174 151.208H107.041V154.776H116.174V151.208Z" stroke="black" stroke-width="2" stroke-miterlimit="10"/>
<path opacity="0.15" d="M93.0586 61.8533H83.9265V65.4206H93.0586V61.8533Z" stroke="black" stroke-width="2" stroke-miterlimit="10"/>
</svg>
